<svg xmlns="http://www.w3.org/2000/svg" width="120" height="164" fill="none"><path fill="#fff" d="m39.44 49.067-3.99-4.608 3.59-2.635 2.41 2.802-.82 1.779.68 1.415-1.41.94"/><path stroke="#263238" stroke-linecap="round" stroke-linejoin="round" d="m39.44 49.067-3.99-4.608 3.59-2.635 2.41 2.802-.82 1.779.68 1.415-1.41.94"/><path fill="#000" stroke="#263238" stroke-linecap="round" stroke-linejoin="round" d="M71.8 57.066s-2.73-2.272-3.75-2.123c-1.02.149-14.4 2.234-14.4 2.234L41.34 47.82l-1.88 1.248 11.78 13.76 12.8-.744-2.75 13.035-11.65 8.25 19 10.567 3.83-11.247L87.6 68.816l-5.88-6.862-9.92-4.889Z"/><path fill="#fff" stroke="#263238" stroke-linecap="round" stroke-linejoin="round" d="m75.7 54.058-2.15 4.209-.79-.67-1.51 10.232 10.48-5.913-1.05-1.545.24-3.194-5.22-3.119Z"/><path fill="#fff" stroke="#263238" stroke-linecap="round" stroke-linejoin="round" d="m71.25 67.829 6.13-3.464-5.12-3.352-1.01 6.816Z"/><path fill="#263238" stroke="#263238" stroke-linecap="round" stroke-linejoin="round" d="M87.8 44.03s4.63-5.046 9.34-1.862 3.41 6.294 6.77 4.59c3.36-1.703 9.67-6.033 13.47-.521 3.8 5.512.87 11.285-1.52 12.607-2.39 1.322-1.76-1.201-1.71-2.421.05-1.22-3.87-2.793-4.74-.28-.87 2.515-5.44 6.388-11.24 6.025-5.8-.363-6.92-7.002-6.79-10.903a6.398 6.398 0 0 0-.973-3.334 7.019 7.019 0 0 0-2.617-2.448l.01-1.453Z"/><path fill="#fff" stroke="#263238" stroke-linecap="round" stroke-linejoin="round" d="M76.7 42.988s-2.9 6.014-2.3 9.562c.6 3.547.28 6.275 2.22 6.964 1.94.69 8.37-2.933 9.79-5.326 1.42-2.392 3.45-5.847 2.89-9.161-.56-3.315-7.38-8.138-12.6-2.04Z"/><path fill="#263238" d="M77.8 49.3c-.15.466-.47.782-.72.708-.25-.075-.33-.503-.18-.931.15-.428.47-.782.72-.708.25.075.29.466.18.931ZM82.42 51.088c-.15.465-.48.791-.73.717-.25-.075-.33-.503-.18-.931.15-.429.48-.782.73-.717.25.065.33.465.18.93Z"/><path stroke="#263238" stroke-linecap="round" stroke-linejoin="round" d="M78.97 50.073s.3.205-.12.931c-.42.726-1.43.466-1.32 1.09.11.623 1.38.93 1.38.93M76.64 54.105s1.61 1.415 3.05 1.07M83.94 49.598l-2.99-.707M78.59 47.839l-1.43-1.192"/><path fill="#263238" stroke="#263238" stroke-linecap="round" stroke-linejoin="round" d="M76.7 42.988s-.43.93-.93 2.206c1.69-.82 4.6-1.74 7.26-.214 2.66 1.527 4 5.037 4.54 7.188 1.13-2.132 2.14-4.655 1.73-7.141-.56-3.315-7.38-8.138-12.6-2.04Z"/><path fill="#fff" d="M86.88 52.075s2.08-1.779 2-.159c-.08 1.62-2.47 2.58-3 2.654-.53.075-.49-.55-.49-.55"/><path stroke="#263238" stroke-linecap="round" stroke-linejoin="round" d="M86.88 52.075s2.08-1.779 2-.159c-.08 1.62-2.47 2.58-3 2.654-.53.075-.49-.55-.49-.55"/><path fill="#000" stroke="#263238" stroke-linecap="round" stroke-linejoin="round" d="m87.59 68.825-3.2 21.238a1.91 1.91 0 0 1-.675 1.171c-.365.305-.835.48-1.325.495h-.69a2.176 2.176 0 0 1-1.452-.48c-.4-.328-.65-.785-.698-1.28L78.3 77.196l9.29-8.37Z"/><path fill="#000" d="m81.8 87.149-10.27-8.436-2.3 1.797 9.86 10.624c.216.217.482.385.779.492.296.106.615.148.931.122h.81a2.21 2.21 0 0 0 .89-.223c.274-.135.513-.326.7-.558.185-.231.313-.499.374-.783.06-.283.053-.576-.023-.857"/><path stroke="#263238" stroke-linecap="round" stroke-linejoin="round" d="m81.8 87.149-10.27-8.436-2.3 1.797 9.86 10.624c.216.217.482.385.779.492.296.106.615.148.931.122h.81a2.21 2.21 0 0 0 .89-.223c.274-.135.513-.326.7-.558.185-.231.313-.499.374-.783.06-.283.053-.576-.023-.857v0"/><path fill="#fff" stroke="#263238" stroke-linecap="round" stroke-linejoin="round" d="m71.53 78.704-2.41-3.585-5.42-.558.03 3.007 2.6 2.02 1.65.215 1.25.698 2.3-1.797ZM42.51 89.886s-11.32 13.715-10.7 15.987c.62 2.271 17.16 26.321 17.16 26.321l2.3-1.415-9.09-26.424 18.27-6.769-17.94-7.7Z"/><path fill="#263238" stroke="#263238" stroke-miterlimit="10" d="m51.63 94.97 1.34 5.484 6.05-2.16-7.39-3.324Z"/><path fill="#fff" stroke="#263238" stroke-linecap="round" stroke-linejoin="round" d="m48.97 132.147-3 4.656s-2.39 3.333-1.69 3.538c1.53.456 5.49-1.965 6.62-2.71 1.13-.744 2.34-1.238 3.09-1.731.75-.494 2.25-.782.2-2.551-.69-.587-2.88-2.617-2.88-2.617l-2.34 1.415Z"/><path fill="#263238" d="M67.66 85.51a145.078 145.078 0 0 0-15.61-4.814c-9.17-2.318-15.95-4.115-15.82-1.983.13 2.132 16.81 36.48 16.81 36.48l2.86-.848-4.36-18.938s7 4.563 12.17 2.3c5.17-2.262 7.14-8.38 6.78-10.465"/><path stroke="#263238" stroke-linecap="round" stroke-linejoin="round" d="M67.66 85.51a145.078 145.078 0 0 0-15.61-4.814c-9.17-2.318-15.95-4.115-15.82-1.983.13 2.132 16.81 36.48 16.81 36.48l2.86-.848-4.36-18.938s7 4.563 12.17 2.3c5.17-2.262 7.14-8.38 6.78-10.465"/><path fill="#fff" stroke="#263238" stroke-linecap="round" stroke-linejoin="round" d="M50.1 80.203c-8.16-2.058-14-3.473-13.87-1.49.13 2.132 16.81 36.48 16.81 36.48l2.86-.848-4.36-18.938c1.49-3.38-.09-10.484-1.44-15.204Z"/><path stroke="#263238" stroke-linecap="round" stroke-linejoin="round" d="m51.54 95.407-7.19-9.71"/><path fill="#fff" stroke="#263238" stroke-linecap="round" stroke-linejoin="round" d="m53.04 115.193-2.68 4.702s-5.41 4.878-4.21 5.13c1.2.251 11.37-3.818 12.13-4.786.76-.968-2.38-5.894-2.38-5.894l-2.86.848Z"/><path stroke="#263238" stroke-miterlimit="10" d="m40.6 46.796 25.22 27.96M1 1l36 42M67.98 79.793 66 163.18"/></svg>