<svg width="603" height="588" fill="none" xmlns="http://www.w3.org/2000/svg"><path d="M298.558 220.171c.591-.083.651-3.034.313-3.07-1.206-.105-1.664 3.27-.313 3.07ZM170.504 262.965c.989-.352 7.369.953 7.369-1.023 0-1.27-6.561-2.94-7.369-2.352a3.625 3.625 0 0 0 1.025 2.258c0 .623-2.761-.07-3.003.588.192.324.508.562.878.661.37.099.765.052 1.1-.132Z" stroke="gray" stroke-miterlimit="10"/><path d="M228.38 301.867c-2.677.142-5.258-3.21-8.188-3.61-2.605-.353-2.762-.623-5.054.294 2.557-1.023-4.124-4.034-4.16-4.045-1.122-.294-2.268 2.669-3.281 2.246.205.082 1.206-2.352.181-3.269-1.025-.918-2.846 1.293-2.942 1.234.168.094 2.858-6.562-.422-8.302-3.16-2.023-5.753-1.647-8.623-3.046-2.678-1.317-2.919-4.551-6.682-4.316 1.532-.094-2.966-3.916-1.724-3.434-2.002-.776-5.873.87-8.442.306-1.025-.212-1.689-2.775-3.172-2.775-2.267 0-1.652 3.963-2.014 4.704-1.049 2.246-1.471-5.88-.41-5.222-.76-.47-6.03 3.105-6.621 3.528-1.206.87-1.664 2.564-2.894 2.917 2.074-.6-6.633-1.541-4.824-.871-5.512-2.046-2.991-2.74-4.487-7.479-.434-1.341 1.001-1.976-.169-3.199-1.169-1.223-5.812-1.411-7.236-.517-1.013.541.133-3.716.579-4.163 1.797-1.776 2.412-5.88-.41-5.974-4.619-.118-2.339 3.869-5.21 5.256-8.635 4.187-9.021-7.655-8.743-12.63.47-8.761 6.946-6.386 12.349-5.774-1.423-.165-.217-2.258 1.423-2.352 1.53.055 3.038.378 4.451.953 2.725.787 2.038 0 4.064 3.351.796 1.341 1.109 4.704 2.894 5.257.157 0-.096-12.254.929-13.724 1.29-1.858 4.378-4.163 5.354-5.386 2.232-2.787.085.353.362-2.881 0-.341-.892-4.951.627-4.951-.591 0 .519 4.327.459 4.363 1.519-1.023.53-2.529.603-3.693 0-.929 4.92-2.517 5.318-3.363.169-.353-2.352 0-2.352-.071 0-1.246 3.956-1.035 4.535-1.423.23-1.595.801-3.126 1.676-4.492 1.785-1.799 6.235-1.4 7.61-4.151-.169.341.591 1.705 1.544 1.434-3.51 1-5.186 2.823-.977 2.211 2.147-.317 5.403-2.352 7.007-3.528.096-.07-.736-1.082-.615-1.787-.073.447-2.653 2.434-3.256 2.352-4.101-.729-2.147-3.411-3.739-4.446a2.729 2.729 0 0 1-1.363.247c-.434-1.434 4.957-2.516-.229-3.175-3.618-.459-5.367 4.622-7.827 4.622 1.206 0 6.645-6.445 9.214-7.056 1.025-.329 15.497-1.353 14.291-4.469a10.48 10.48 0 0 0-1.025-.506c-1.001-.905 2.617-1.799-1.399-2.258a4.77 4.77 0 0 1-.109-1.305c-.385-.259-4.438 1.376-4.438 1.364-.313-1.435 3.751-1.599 4.209-2.352 0 .059-8.695-4.057-7.911-5.068 1.604-2.023 1.592.235.555-2.905-.29-.859-4.161-6.151-3.884-6.398-1.881 1.659-.82 5.434-4.1 5.445-3.618 0-3.268-4.045-3.268-6.362 0-1.023-8.985-3.634-9.648-3.61-5.078.129-2.991.447-3.305 4.375-.06.67-.808 3.457-.735 3.857.603 3.046 3.183 4.022 1.604 7.926-.483 1.176-3.365 1.517-3.618 2.211-.278.929 1.121 1.87.904 2.975-.084.447.47 4.645.181 4.516-1.918-.882-1.073.859-3.22-1.011-2.412-2.105-.736-5.151-2.147-6.75-.554-.647-7.561-3.235-9.117-3.928a9.935 9.935 0 0 0-6.754-1.035c.615-.094-.579-3.528-.844-3.916-1.519-2.517-3.16.282-2.243-4.704.229-1.247 5.946-7.233 6.03-7.056 0-.247-4.679-1.952-4.643-2.035.651-1.517 4.619 2.705 5.704-.482-.494 1.47 6.284-1.435 4.595-2.622-.711-.494-4.691 0-4.45-1.823-.157 1.176 8.526 1.646 5.077-1.353-.12-.105 3.16 0 3.823 0 .459 0-1.206-1.552-1.097-1.705.494-.482 2.231 2.352 4.51-.117 1.761-1.917-.916-2.117-1.025-3.975 0-.212 2.714-.929 1.809-2.258-.687-1.012-4.293-2.223-5.487-1.847-.832.259.301 4.211-1.954 5.492-.3-.288-.53-.637-.675-1.023-.953.059.856 3.434-.362 2.881-1.218-.552-1.327-2.951-1.52-3.116-.482-.412-1.121-1.929-1.929-2.634-.808-.706-1.58 2.622-1.894 2.681-1.206.212.157-2.881.242-3.022.554-1.012-2.931-.682-2.871-.623-1.109-.941.76-1.459.953-1.753-.241.377-2.677-3.869-2.677-3.845-1.604-3.528-.519 0-.929-4.01.193 1.869 7.453-3.117 4.933-3.928-2.521-.812-6.223-1.082-6.79.905-.314 1.176-.133 5.645-.603 7.444-.157.577-2.135 1.506-1.447 3.799.277.894 5.559 2.058 3.075 4.022a.944.944 0 0 1 .328-.645.992.992 0 0 1 .697-.237c.072.153-2.701 5.104-2.412 4.892a37.266 37.266 0 0 1-3.184-3.175c-.145-.259 3.534-.812 3.727-.988 1.423-1.353-2.087-1.329-2.087-1.529 0-.388 1.882-.153 1.206-.658a4.192 4.192 0 0 0-1.514-.697 4.266 4.266 0 0 0-1.673-.059 4.223 4.223 0 0 0-1.562.59 4.097 4.097 0 0 0-1.196 1.142c-.651.846 5.174 3.01-1.833 3.892-3.196.4-4.499-1.176-7.236-1.799-.808-.188-.772-1.011-2.231-1.176-.507 0-3.98 1.435-2.919 1.905.772.329 3.618-1.576 4.088-1.094-1.881-2.011-2.231 5.669-3.449 5.045-.542-.282-.205-2.128-1.857-2.657-2.267-.741-7.405 1.54-9.093-.271-.82-.87 2.158-1.082 1.929-1.599-.832-1.882-5.559-2.011-7.236-2.411-1.676-.4-2.954-1.329-4.486-1.494-1.845-.188-2.545 1.094-4.257 1.094-.253 0 .35-2.234-.446-2.352a9.23 9.23 0 0 1-2.075 2.352c-1.64-.117-1.423-4.045-3.377-3.751 1.327-.2-2.785 2.846-2.508 2.693a55.05 55.05 0 0 1-5.415 2.951c-1.025-.058 5.777-4.127 5.765-3.974.072-.8-5.885 1.658-6.549 2.011-.663.352 0-1.024-1.206-.624-2.846 1-.82 1.858-1.507 2.587.277-.282-17.596-4.104-18.778-4.198-1.748-.141-12.614-1.34-13.266-2.07-1.206-1.27-4.305.083-5.728 1.6-1.146 1.176-9.648 3.046-10.022 4.845-.868 3.775 8.165 4.48 8.852 6.538 0 .165-10.167-.376-11.288 2.235.386-.894 2.846 2.858 3.1 2.952 1.205.423 7.38-.871 7.404-.835 1.737 1.681-2.038 3.963-2.967 4.809-1.121 1.012-1.206-.623-2.556 1.094a21.676 21.676 0 0 1-2.545 2.011c.29-.259 2.05 3.587 2.11 3.634 1.074.917 4.366.905 3.98.529 1.037 1.012-.096 3.128.869 3.622.65.341 2.906.071 4.148.565-1.11-.435 3.413-1.917 3.148-1.176-.615 1.811-8.032 10.584-9.117 9.408 1.302 1.399 14.676-7.409 14.676-9.491a3.647 3.647 0 0 0-1.206-.658c-.301-.741 7.236-6.856 6.971-4.481 0-.247-4.498 3.352-3.461 4.281.314.27 5.294-1.411 6.03-1.694.736-.282-1.81-2.481 0-2.798.615-.106 2.99 1.258 3.087 1.176a.847.847 0 0 0-.933.327.804.804 0 0 0-.128.319c.23.706 10.637.259 11.288.824-.313-.271 6.681 5.621 6.61 3.974a2.7 2.7 0 0 1-.218-1.881c3.329 2.352-1.556 3.01-1.544 2.869 0 .165 2.533 3.646 2.412 3.681.47-.247-.65-3.151.109-2.881.17.368.241.773.205 1.176.844 1.058.989-2.352.88-2.117.181-.458.266 4.493-.265 4.422-.772-.106 4.426-.435 2.894.294.483-.235-1.893-1.611-.579-1.717 2.026-.165.435 1.67-.916 1.788-.01.965.071 1.929.241 2.881.41.294 2.267-1.411 3.208-1.247.94.165.772 3.528 1.29 4.234.374.505 2.98 3.057 3.317 3.528a27.557 27.557 0 0 0 5.475 4.304c-.18-.141 6.85 5.645 2.979 5.645-.145 0-4.197-10.643-8.695-7.55.94-.647 6.03 6.491 6.38 7.409 1.88 5.268-1.207 11.395.892 17.146 1.435 3.939 5.222 6.432 7.779 9.137a34.166 34.166 0 0 1 4.064 5.998c1.797 2.963 2.195 3.716 1.833 5.409 0 .083 8.104 8.35 7.791 8.573.772-.541-8.032-16.04-7.779-16.075 3.184-.318 3.461 4.539 4.052 5.433 1.628 2.457 4.595 4.704 6.38 6.985 3.051 3.822 3.461 7.832 6.187 10.584 1.809 1.823 6.03 3.41 8.442 4.151 3.184.988 6.548.059 9.117 2.505 1.206 1.094 3.027 1.176 3.847 1.941 2.255 2.022 3.184 1.011 5.295 3.128 1.423 1.423 1.833 2.728 2.653 3.528 1.351 1.293 3.618 3.751 5.656 3.892 2.038.141 1.387-2.187 2.412-1.952 4.534 1.047 3.714 6.974 1.881 10.584-1.978 3.94-4.51 4.622-2.279 8.597.157.282-2.207 4.022-1.978 5.186.434 2.211 5.499 8.761 6.681 11.054 2.268 4.351 5.162 4.798 8.37 8.35 2.931 3.246 2.002 5.88 1.495 10.302-.735 6.479-.928 12.853-2.339 19.133-.567 2.505-5.439 15.547-3.618 18.052.832 1.176 1.206-3.281 1.978-3.528.771-.247-.495 9.725-1.303 9.173-.422-.294.47-3.234-.639-2.752 1.013-.435-2.074 4.151-2.086 4.198.12-1.294 1.579 1.576 1.64 2.035.096.799 1.785-.53 1.7.635.121-1.741-5.065 1.999-2.617 1.634.405-.23.778-.511 1.11-.835.362-.07-2.557 2.976-.603 3.281.386.059.591-1.952 1.133-1.423 1.146 1.118-2.183 3.528-1.399 4.446.157.188 1.785-.718 2.099-.083.096.2-1.098 1.106-.905 1.176.652.235 2.135-.623 2.412.294.278.918-2.894.071-1.809 1.576.41.565 2.991-1.823 3.474-.259-.133-.446-2.895 1.412-2.991 1.529a30.782 30.782 0 0 1 3.401-.764c.241.517-3.775 2.034-3.884 1.587.121.506 2.412 1.906 2.798 1.553.627-.624-.832-.318-.313-.976.361-.471 3.449-2.141 3.618-2.588a1.756 1.756 0 0 0-.647.662c-.15.273-.223.581-.21.891.462.082.932.105 1.399.07-.386-.423-.928 1.976-.784 1.905a1.913 1.913 0 0 1-.46-.612 1.868 1.868 0 0 1-.179-.74c-.687-.294-.337 1.411-.434 1.341a.91.91 0 0 0-.435-.526.946.946 0 0 0-.686-.086c.566-.776-.7 2.352-.7 1.282 0-.6 1.954 1.752 1.906 1.705.264-.384.449-.816.542-1.27a36.094 36.094 0 0 0 3.244 2.187c.603.177-.434-1.375-.084-1.328a20.761 20.761 0 0 0 4.679-.941c-2.171-.776-4.824-4.54-5.234-4.704-.325-.083-1.556.176-1.375-.635.181-.812 1.339.282 1.641 0 .301-.282-1.363-2.787-1.013-3.528.542-1.176 1.495-1.506 2.11-2.599.82-1.458 2.846-2.576 2.967-4.199.108-1.281-1.894-1.305-1.797-1.669.374-1.412 1.302-4.869 2.798-6.704.567-.705 2.496-2.552 2.484-2.563-.47-.388-4.161-.071-2.219-2.929-.615.894 4.402-.776 4.149-.635.687-.388-.097-2.646.253-3.01 1.713-1.776 8.02.8 8.731-3.94.157-1.046-2.798-4.704-2.858-4.633 1.001-1.023 5.668 1.176 8.237-1.482.639-.659 3.835-6.174 3.823-6.009a11.184 11.184 0 0 1-1.206 2.293c0-1.094 3.751-4.116 4.233-5.386.7-1.811-.144-4.175.82-5.88 1.942-3.317 6.296-2.681 8.708-4.163 3.099-1.917 3.991-4.704 4.944-8.232.591-2.188 0-7.762 1.206-9.514-.169.353 12.084-12.795 4.426-12.372Z" stroke="gray" stroke-miterlimit="10"/><path d="M168.84 259.39c1.773-2.352-18.271-6.562-15.763-2.998-1.206-1.706 7.996.576 8.442.811 1.496.835 5.138 5.045 7.321 2.187ZM162.449 262.601c.277.505 2.87 1.176 3.135.588.266-.588-3.473-1.223-3.135-.588ZM179.995 262.742c.603 1.023 2.412.412 2.521 0 .277-.729-3.136-1.011-2.521 0ZM189.752 388.644c.82.436 2.521-1.752 1.773-1.893-.748-.141-2.557 1.482-1.773 1.893ZM191.754 388.797c.543.283 2.786-.717 2.521-1.246-.495-1.094-3.027.952-2.521 1.246ZM203.657 153.703c.145-2.634-3.992-1.352-4.607-1.176-.615.177 4.414 4.398 4.607 1.176Z" stroke="gray" stroke-miterlimit="10"/><path d="M250.016 151.904c-.495.294-6.585-.635-6.621-.529.157-.4 2.207-2.693 1.942-2.787 1.338.494 5.185 4.951 5.366.823.145-2.411-3.473-2.411-4.004-4.41-.156-.553 4.704 1.529 3.727-1.411-.543-1.67-5.319 1.176-5.126-.612-.072.623 1.653-2.187 1.351-1.87 1.52-1.634 8.442 3.999 3.968-1.658-.181-.223 4.016-.153 4.221-.988.205-.835-4.173-.717-3.184-2.352 1.206-1.999 4.378.906 2.412-3.187.072.141-5.053-1.564-4.269-2.352.784-.788 6.802 0 6.573-.905-.579-2.141-3.558.117-3.799-1.717-.133-.953 1.809 0 2.098-.494 1.085-1.67-4.703-.318-4.498-.165-1.568-1.176 6.416-8.432 6.645-8.126-1.46-1.905-2.798 1.27-3.835.271-1.037-1 5.776-1.835 5.957-1.953.579-.352-3.618-1.176-3.823-.905.736-1.176 10.565-1.07 10.565-3.716 0-3.528-9.323-.141-10.36.188-.82.247-2.002-.788-2.568-.576-1.87.693-3.618 3.657-5.596 3.939 1.965-.282 4.197-4.915.989-5.468-.507-.082-5.934 3.822-6.272 2.646-.265-.929 3.269-1.364 3.184-2.14-.169-1.647-11.529.929-11.553.682-.169-2.247 15.822-1.341 17.426-3.458.893-1.176-20.333-4.516-22.25-4.034-.483.118-3.365 1.118-3.691 1.176a15.046 15.046 0 0 0-2.002-.105c-3.618.399-7.127.164-10.733.835-.446.082 1.568 1.399 1.544 1.517-.024.117-3.16.317-2.726.87-.096-.118 4.438 3.14 4.125 3.21-2.545.53-7.236-5.139-9.769-3.304-.627.447 1.869 1.94 1.869 2.281 0 1.364-5.113-1.552-4.968-1.552-.374 0-.23 2.975-.953 3.422 2.207-1.341-2.726-3.234-3.497-3.304a4.208 4.208 0 0 0-2.397.522 4.068 4.068 0 0 0-1.668 1.759c-1.145.388-2.834-.964-4.317-.376-1.061.423.94 2.163-.531 2.951-.398.212-10.709.459-9.334 3.528 1.037 2.352 6.609-.105 1.664 3.834-1.351 1.07-5.258.635-6.959 1.764-7.899 5.257 7.309 1.788 7.152 4.704 0 .329-8.068.341-7.911 1.07.205 1.07 5.644 3.528 7.091 3.658 2.93.27 5.74-1.87 9.648 0 3.425 1.611 6.886 4.915 7.911 8.643 1.206 4.363-1.64 4.916 3.051 4.916a26.11 26.11 0 0 0 4.004 4.198c-.168.13-5.234-1.952-5.234-.694 0 2.94 7.067.788 5.186 6.033-.289.776-2.52-.329-3.184 1.259a7.71 7.71 0 0 0-.796 3.363c-.108 2.117 3.148 9.408 5.548 12.654 1.929 2.575 3.075 2.975 5.801 4.175 4.269 1.869 3.28 2.105 5.692-1.376.929-1.365-.506-2.682-.133-3.74.193-.553 2.039-.541 2.316-1.729.35-1.529.133-4.057.338-4.704a3.211 3.211 0 0 1 1.519.2c.205-.117 2.858-3.598 3.172-3.598a1.075 1.075 0 0 1 .205 1.399c.519 1.588 6.609-3.704 6.729-3.798 2.328-1.647 1.99-1.753 4.065-2.646 4.595-1.917 9.768-3.599 13.507-5.751ZM94.526 133.711c1.327-.705 1.327 0 2.328-1.023.282.496.65.942 1.085 1.317 1.58 0 2.22-3.316 3.208-3.528.989-.211.302 2.94 2.581.788.869-.811.676-1.564 1.52-2.469.229-.247-4.824-.083-5.5.141-1.917.658-5.294 4.821-5.222 4.774ZM104.633 132.394c-2.28.176 1.206 1.623 1.133 1.27a5.152 5.152 0 0 0-2.641.753c-.41.564 2.28.353 1.99.458a5.117 5.117 0 0 0-2.738.953c1.46 2.082 3.944.106 5.102-.6-.603.365 3.545 1.364 3.823.953-.398.576-4.294 1.105-4.233 1.717.217 1.975 7.778-.647 8.9-1.176 3.751-1.6 4.824-.306 3.087-3.528.157.258-4.052-2.576-4.715-2.235-1.954.988 1.206 2.964.736 3.658-1.122 1.799-4.909-2.023-5.801-2.246-2.304-.471-2.738-.118-4.643.023ZM130.164 148.082c2.762 2.023 6.03-5.539 4.245-5.633a1.268 1.268 0 0 0-.456.737 1.24 1.24 0 0 0 .131.85c.193-.399-2.268-1.176-2.219-1.176-.531-.811 3.509-1.552.892-3.281-1.942-1.293-1.713 1.106-1.676 1.094.337-.165-5.813-.694-3.86 1.023.66.179 1.334.305 2.014.377 2.316 1.963-4.028.905-3.376.787-1.846.377 3.738 4.81 4.305 5.222ZM91.463 146.777a30.468 30.468 0 0 1 2.183 2.575c1.664 0 3.413-2.352 4.233-2.964 2.147-1.564 5.198-3.092 7.369-4.845.808-.646-9.902-3.645-11.3-3.222-4.487 1.376-.58.435-2.039 2.846-.458.741-2.87 4.622-2.569 4.986.659.343 1.38.555 2.123.624ZM99.652 134.805c1.206.141 2.412-1.023 2.412-1.682 0-.658-3.027 1.611-2.412 1.682ZM172.072 149.352a1.333 1.333 0 0 0 .938-.388 1.252 1.252 0 0 0 .364-.929c.29.964-5.149-1.811-5.644-1.976-1.206-.4-.446-1.482-2.412-1.917-1.338-.294-3.389 1.647-3.328 1.658-1.809-.623-1.05.13-3.1.13-1.507 0 1.037-8.056-5.511-4.198-3.956 2.352-.676 3.528-.495 6.021 0 .411-2.954-.859-2.834-2.729.109-1.693 2.28-3.21 2.28-4.28 0-1.976-7.128 2.352-7.478 3.928-.47 2.069 2.593 6.209 3.848 4.586-.326.412-3.341-.388-3.257.388.434 4.245 16.125 1.599 16.462 2.458a1.793 1.793 0 0 1-.523-.507 1.748 1.748 0 0 1-.273-.669c.217-.706 5.524 3.21 5.56 3.528a4.321 4.321 0 0 0-1.508 1.388c1.013.823 2.135-.835 3.823.87 1.906 1.928 1.87 1.529 2.328 4.457.097.611 5.765-1.176 4.74 1.376-1.026 2.552-2.533-.659-3.281-.424-.747.236-2.689.306-3.726.612.078.654.291 1.286.627 1.858-1.604.764-4.209.082-5.439 1.176-4.523 3.775 4.824 1.482 6.114 1.882 1.291.399 9.106 9.713 11.132 7.056.506-.683-3.437-4.846-4.173-4.704 2.991-.847 7.381 3.974 5.813-.906-.7-2.176-6.03-3.857-3.691-6.574.965-1.176 4.993 3.681 5.669 3.658 0 0 3.955-4.046 3.955-4.022 0-2.705-10.926-4.163-10.576-6.786a5.965 5.965 0 0 1 2.11-.506 3.52 3.52 0 0 0-1.773-.952c-.181-1.611 1.749-1.529-1.025-1.529 2.014 0-2.786-2.128-2.967-2.199-.566-.176-2.749-.835-2.749-.835ZM78.233 193.922c-1.266.718 1.58 4.116 2.34 3.611.23-.165-.482-4.669-2.34-3.611ZM123.542 136.263c.471-.588-1.025-1.823-1.435-.8-.41 1.024.905 1.4 1.435.8ZM160.398 175.389c.482-.083 1.435-1.905.205-1.835-1.23.071-.941 1.941-.205 1.835Z" stroke="gray" stroke-miterlimit="10"/><path d="M167.224 159.842c3.727-.67-3.618-3.293-2.412-2.282.808.647-2.074 3.082 2.412 2.282ZM154.367 173.778c1.098.729 2.726-1.235 2.593-1.823-.132-.588-3.883.917-2.593 1.823ZM141.283 136.416c.627 1.882 16.22 2.658 18.029 1.376 7.236-5.092-15.28-2.54-14.978-4.198a6.28 6.28 0 0 1 1.206-1.176c.555-.718-12.241-3.234-11.264-1.753 2.689 3.999 5.21.224 7.007 5.751ZM125.593 152.762c.362-.458 2.11.941 2.183-.07 0-.718-5.198-4.328-5.656-5.48a26.575 26.575 0 0 1-.35-4.704c.615-.541.555-1.176-.205-1.706a2.894 2.894 0 0 0-1.613-.072 2.827 2.827 0 0 0-1.39.802 9.174 9.174 0 0 1 1.905 1.752c0-.341-3.413-1.541-3.75-.882-.483.941 1.555 4.351.904 4.704-.12 0-4.607-4.916-4.824-3.799.477.396.884.865 1.206 1.388 0 .176-2.484.071-2.351.412-1.797-4.634-3.281.917-4.909-.577-.169-.164 2.798-2.352-.699-2.352-1.351 0-4.824 1.894-5.271 2.999-2.026 4.704 2.521 1.247 4.426 2.681.097.071-4.028 1.118-4.028 1.67 0 2.47 9.757-.247 9.757 1.835 0 .506-8.792 0-8.442 1.388.904 3.833 12.06 3.069 14.327 2.763a17.64 17.64 0 0 1 3.618-.482c.76 0 7.007 2.093 6.259-.388-.603-1.94-2.038.588-2.532-.729.408-.461.893-.85 1.435-1.153ZM184.289 202.978c.133.576 4.101 2.352 4.234 1.528.132-.823-4.354-2.034-4.234-1.528ZM144.72 127.796c-1.206-.659-2.773.729-1.495 1.246 1.134.436 2.774-.588 1.495-1.246ZM134.119 126.855c8.032 0-1.447-4.363-1.977-3.528-.531.835 1.037 3.528 1.977 3.528ZM134.939 119.623c.073 0 6.332 2.857 6.03 1.893.169.494-2.882 1.176-2.725 1.388 2.002 2.152 5.149 3.528 7.983 2.775.193 0 5.898-5.01 5.729-4.163-.229 1.176-4.209-3.928-4.426-4.092-.217-.165-8.671-4.493-9.491-3.881.062.225.192.426.372.579.181.153.404.25.641.279 0 .459-2.075.094-2.268.471.386.298.76.603 1.122.917-.41.776-2.798-.376-2.713 1.176a5.108 5.108 0 0 0 1.869 1.376c.048.823-4.523 0-2.123 1.282ZM158.698 140.861c-1.725 3.975 6.958 3.058 6.958 2.188 0-1.329-6.464-3.317-6.958-2.188ZM139.655 127.22c-.145-.447-5.318.223-4.51.87 1.362 1.094 4.643-.435 4.51-.87ZM108.178 127.137c.35-.87-2.255-.729-2.038-.435.47.659 1.7 1.317 2.038.435ZM138.147 135.099c-1.097-.882-4.341 1.235-3.895 1.599 1.773 1.47 7.911 1.623 3.895-1.599ZM122.385 129.254c.542-.729-2.195-3.057-2.328-1.964-.133 1.094 1.749 2.74 2.328 1.964ZM128.39 130.536c-1.628-.67.688 2.352.435 2.352a6.114 6.114 0 0 0-2.593-1.176c-.579.459.844 1.846.374 2.07-.736.341-2.533-3.023-3.546-3.081-2.171-.118.772 3.01.868 3.069 1.821 1.07 3.256.247 5.077.729-.253-.07 2.015 5.633 4.149.588 1.556-3.728-2.906-3.822-4.764-4.551ZM113.847 126.773c1.206-.188-4.824-1.588-4.824.658-.025 3.811 4.836-.658 4.824-.658ZM110.506 125.385c.555.247 4.438.2 4.438-.576 0-2.834-6.44.306-6.283.435.606.13 1.226.177 1.845.141ZM131.249 119.693c.483-.87-2.87-1.564-2.038-.799.47.435 1.568 1.681 2.038.799ZM121.902 123.127c1.098-.353 1.785 0 2.051 1.023-.133.318-2.533.224-2.412.435.12.212 13.133 5.21 6.488-1.176a6.973 6.973 0 0 0-3.148-1.658c-5.873-.705-2.496 1.035-2.979 1.376ZM159.313 169.767c.133-.764-6.669-5.303-7.031-5.256-.651.082-3.823 4.233-3.413 5.55.41 1.317 10.504-.646 10.444-.294Z" stroke="gray" stroke-miterlimit="10"/><path d="M143.201 112.402c2.412-1.693.422.706.446.741.489.021.975.096 1.447.223-2.725 3.117 5.089 2.611 5.053 2.023.35 4.845 9.962-1.623 11.12-.823 2.219 1.54-5.838 3.058-5.645 3.316 0 0 2.593 2.141 2.268 2.152-1.532.118-9.54-5.433-8.189-.494.314 1.176 6.609 3.528 6.609 4.61 0 0-7.936-2.352-8.129 1.023-.12 2.094 4.378-.376 4.426-.247-.699-1.517.7 4.704.7 3.528 0 1.412-6.151-3.669-5.897-.87.562.504 1.167.961 1.809 1.364 0 .483-5.283.906-4.041 2.129 1.424 1.423 17.475 1.858 18.283 0 .808-1.858-6.03-1.388-6.331-1.882.953 1.459 6.03-2.646 6.428-2.834 2.557-1.376 3.618.647 4.969-3.246.398-1.176-4.426-1.176-4.378-1.176 2.81-1.94 6.512-1.176 9.069-2.352 1.556-.752 10.77-5.397 10.854-6.079.084-.683-4.318-.177-4.571-.283 2.123.906 9.648-3.975 9.769-3.951-.603-.188-9.335-3.081-9.479-.894a3.312 3.312 0 0 1 1.411-1.176c-1.713.659-10.287.212-11.445.271-3.932.2-7.731-.506-11.192.423-.699.188-16.787 5.339-17.089 4.704a1.555 1.555 0 0 0 1.725-.2ZM197.784 199.92a8.296 8.296 0 0 0-3.28 3.693c-.169.352-3.172 3.292-1.954 3.998 2.762 1.576 5.307-2.352 5.596 1.176-.096-1.176 4.004.435 4.185.094-.073.153-1.206-3.057-.663-2.822.735.329-5.44-3.834-5.355-3.14a6.496 6.496 0 0 1 1.471-2.999ZM24.976 195.216c.82-.365 1.206-.811.82-1.247-.386-.435-1.447 1.553-.82 1.247ZM30.777 191.947c-.953-.365-1.917 1.117-2.05 1.105-.41-.07 2.967-.741 2.05-1.105ZM46.89 183.844c-1.568 1.929-2.859 5.621.482 2.352.494-.494 1.218-4.433-.483-2.352ZM26.34 179.07c-.64-.377-1.098-.2-1.363.505.253.303.59.528.97.651s.788.138 1.176.043c2.316-.823-.796-1.329-.784-1.199ZM289.44 223.628c-.108-.823-1.676.247-1.338.482.687.506 1.459.341 1.338-.482ZM324.1 231.895c0-.541-4.414 0-4.317 0-.567-.047 4.45 1.412 4.317 0ZM335.642 232.507a14.32 14.32 0 0 1 1.133-1.4 14.464 14.464 0 0 0-3.497 1.176c-.603 1.129 2.496 1 2.364.224ZM260.761 168.45c4.824-.258.289-7.444-2.026-6.127-.531.294-3.932 2.141-4.547 1.964a1.175 1.175 0 0 0-.413-.57 1.222 1.222 0 0 0-.672-.241c-3.027 3.528.108-1.012-4.064-1.012-.869 0 .446 1.176.217 1.176-.844-.094-2.123-.341-2.328 1.176-.096.671 3.473.518 3.341.388-.133-.129-.35 1.247-.229 1.176-.097.059-2.859.118-2.617.6.084.165 2.52.247 2.942.729.772.871-.832 1.953-1.001 1.776 2.919 3.152 8.273-.858 11.397-1.035ZM269.794 199.203c4.052 0 5.162-2.846 4.764-5.88-.133-1.035 2.038-1.176-.398-2.482a9.718 9.718 0 0 0-3.184.659c-.072 2.117.157.247-2.159 1.482-.072.07-.024 6.221.977 6.221ZM282.204 179.446c.386-.412.844-1.999.254-1.823-.591.176-.411 1.999-.254 1.823ZM274.437 183.268c-.301-.318-1.483 1.47-1.025 1.458.458-.012 1.314-1.141 1.025-1.458Z" stroke="gray" stroke-miterlimit="10"/><path d="M274.051 185.455c1.484-1.27.085 4.881.085 4.093 0-1.106 1.953.541 1.736.576.428-.324.737-.773.881-1.282.687.106-.447 2.634-.434 2.799.132.988 2.604-.623 2.749-.365 1.628 2.764-1.302 3.916-1.206 5.739-.428.088-.818.3-1.12.609a2.086 2.086 0 0 0-.568 1.12c1.246.294 2.518.475 3.799.541.084.447-5.367 1.541-4.028 3.281 0 0 9.792-2.093 10.371-2.67.579-.576-1.001-.211-.952-.623.265-1.917 1.809-1.023.952-3.116a5.595 5.595 0 0 1-1.905-1.458c-1.098-1.811-2.171-5.704-4.824-5.516 0 0 1.712-2.775 1.531-3.21-.747-1.858-2.158.258-3.22-.988-.361-.412 2.183-2.07 1.436-2.752-.519-.564-5.174 3.128-5.283 3.222ZM301.946 191.465c-.289-.071 3.859-1.094 1.882-2.411-1.689-1.129-2.051 2.375-1.882 2.411ZM312.981 184.632c-.868 0-1.206 1.835-1.049 2.14.157.306 1.906-2.211 1.049-2.14ZM317.805 184.091a4.409 4.409 0 0 0 1.592-1.117c1.11-1.2-3.304 1.211-1.592 1.117ZM319.096 181.951c.18-.365-1.315-.2-.977.129a.649.649 0 0 0 .977-.129ZM312.414 118.635c1.291 1.082 3.811-.165 5.415.811-.06 0-3.22 1.176-3.208 1.176.784 1.976 12.06.965 11.301-2.081-.097-.365-7.357-1.364-7.068-1.458a1.3 1.3 0 0 0-.265 1.599c-.603.435-3.521-1.905-4.173-1.823-.406.38-.74.825-.989 1.317l-1.206-.882c-1.29-.012 0 1.188.193 1.341ZM302.959 121.598c-2.316-.529 1.206 3.528 1.76 3.799 1.074.6 1.93-1.941 2.702-2.235.772-.294-.326 1.388.422 1.341a6.042 6.042 0 0 1 1.64-.682c.663 1.011-4.824 2.964-4.088 3.152 1.387.341 2.882-.541 4.317-.2a23.124 23.124 0 0 0-4.233 1.317c-.132 1.317 2.412 1.258 3.039 1.493a1.004 1.004 0 0 1-.293.404c-.13.109-.287.184-.454.22-.35.458 1.917.682 2.279.47a34.02 34.02 0 0 0 2.412-3.528c.277-.341 2.472-5.468 3.835-3.363-.362-.565.555 4.469.06 4.374.579.118 5.789.977 5.584-1.387.109 1.176-5.391-3.916-5.294-3.846-1.713-1.364-4.269-1.587-5.488-1.881.712.164-1.133-2.235-2.014-2.517-1.278-.412.29 4.434.374 4.045 1.206-4.986-3.557-1.07-3.521-1.081a8.774 8.774 0 0 0-1.423-1.176 5.31 5.31 0 0 1 1.29-.518c-.398.153-8.804.47-2.906 1.799ZM301.56 124.55c.33.306.694.574 1.086.8-.507 0-1.062-2.552-2.05-2.258-.059.317.008.644.187.915s.457.465.777.543ZM575.564 170.79a2.7 2.7 0 0 0-1.906.624c.302.364 4.728 1.376 4.728.4a4.369 4.369 0 0 0-2.822-1.024ZM500.49 216.619c-.229-1.482-3.618 4.869-1.917 3.952-.302.164 1.423-.941 1.375-.694-.29-.412-.591-.823-.905-1.176 0 .353 9.817.27 9.322-3.893.266 2.258-8.212-1.482-7.236-2.128.097-.083-.639 3.704-.639 3.939ZM482.328 237.105c.482.953.94-1.329 1.206-.188 0 .165-.652 3.599.482 3.352.929-.2 2.605-3.47 1.206-4.058-.41-.129-4.124-1.517-2.894.894ZM487.743 236.717c.338-1.446 2.412.271 2.412-1.999 0-1.176-2.412 0-2.533.212-.398.717-.217 3.198.121 1.787Z" stroke="gray" stroke-miterlimit="10"/><path d="M491.107 231.801s-7.501.33-6.922 2.893c.072.33 6.319-.576 6.765-.67-1.399.318 1.339.964 1.665.941 1.061-.082.253-1.505.446-1.623 1.206-.717 4.824.635 6.03-1 .965-1.281 3.159-10.102 1.459-11.054-2.135-1.176-3.196 5.504-4.197 6.868-.808 1.082-5.017 1.376-5.246 3.645ZM452.382 262.013c.318-.628.592-1.277.82-1.941-.18-.67-4.04-.164-3.256 1.282.085.177 2.304 3.117 2.436.659ZM468.35 256.133c.748-.553 2.508-4.269 1.918-5.116-1.978-2.81-3.546 6.374-1.918 5.116ZM466.94 266.293c-1.05 3.387 10.166 7.915 7.851 10.514 3.726-4.175-4.282-5.88-5.102-7.785-.82-1.905 2.883-4.634 0-6.268-1.929-1.118-2.701 3.398-2.749 3.539ZM464.985 276.901a9.423 9.423 0 0 0-1.954 2.728c-.193-.364 3.944-2.904 3.184-4.527a2.54 2.54 0 0 0-.824.763 2.466 2.466 0 0 0-.406 1.036ZM467.807 271.256c.133.682.459 2.093 1.46 1.752 1.001-.341-1.556-2.234-1.46-1.752ZM474.223 277.101c-.362-.482-1.266.411-1.134.776.133.365 1.496-.341 1.134-.776ZM475.731 277.924s-6.633 4.198-5.511 4.093c1.121-.106 1.579-1.635 2.725-.847 1.146.788.446 3.328 2.641 3.328-1.64 0 1.749-3.422 1.592-2.822a3.53 3.53 0 0 0-.14-2.09 3.628 3.628 0 0 0-1.307-1.662Z" stroke="gray" stroke-miterlimit="10"/><path d="M470.268 273.738a1.596 1.596 0 0 0 .084 2.246c2.859-.612-1.001 2.117 1.206 2.622 1.894.447 2.026-5.574-1.29-4.868ZM516.228 301.715c0 1.928-5.077.729-5.149 1.317-.278 2.799 7.815.094 6.15-1.941-.554-.164-.892.036-1.001.624ZM518.278 301.526c1.363-.388-1.061-2.069-1.35-2.14.446.094.904 2.258 1.35 2.14ZM509.535 304.925c1.206.082-3.919-4.163-5.101-4.822-2.654-1.47-7.803-3.751-10.456-3.598-.772 0-1.846 2.352-2.786 2.187-1.894-.341-.808-2.352-2.159-2.857-1.206-.459-1.206-1.717-3.244-1.423-.35.058-2.328 1.575-1.628 1.728.386.083 4.39 2.258 4.414 1.588 0 .306-2.412.294-2.678.329-1.109.2 4.173 2.728 4.511 2.881 2.327 1.106 4.016.871 5.367 3.187 1.35 2.317-1.894 2.188-1.351 3.234 1.001 1.917 8.357.224 9.141.236 2.147 0 2.111-.071 4.824 1.234-.072 0 6.597 3.246 5.886 2.094-.326-.459-6.079-6.069-4.74-5.998ZM407.423 277.442c-.989.117-1.013 5.727.133 6.174 3.196 1.27 2.484-6.48-.133-6.174ZM359.05 313.345c0 .059-2.134 3.634-2.496 3.999-.965.94-3.498 1.517-4.257 2.352-2.099 2.352-.688 3.422-1.05 6.903-.265 2.458-3.232 12.383 3.618 9.149 3.92-1.858 3.112-12.783 4.583-16.37.193-.47 1.206 1.058 1.206-.929s-1.158-3.375-1.604-5.104ZM365.732 272.703c.506.564 1.507-.094 1.568-.318.06-.223-2.147-.317-1.568.318ZM528.723 309.417c.132.729 1.206 1.176 1.567.918.362-.259-1.712-1.67-1.567-.918ZM523.875 304.925c0 .188 1.049 1.317 1.29 1.176.241-.141-1.23-1.517-1.29-1.176ZM528.988 307.853c.373-.258-2.111-1.717-2.147-1.246-.036.47 1.773 1.505 2.147 1.246ZM520.992 302.891c-.084.435 1.375 2.751 1.918 2.352.965-.659-1.857-2.788-1.918-2.352ZM530.327 307.783c-.35.799 1.013 2.187 1.206 2.222.193.036-.893-2.846-1.206-2.222ZM531.52 311.028c0 .177.953 1.059 1.399.73.447-.33-1.519-1.047-1.399-.73ZM482.75 313.357c.338.294 2.038-.071 1.978-.506-.06-.435-2.496.071-1.978.506Z" stroke="gray" stroke-miterlimit="10"/><path d="M518.918 341.428s-.82-4.821-.398-4.633c-2.907-1.329-7.14-7.233-9.238-10.349-1.58-2.352-2.062-4.857-3.329-7.785-.651-1.517-2.002-.377-2.412-1.364-.675-1.447 0-4.469-1.459-5.798-1.11-1.011-1.7 7.232-1.713 7.268-1.543 4.28-.627 4.351-4.582 2.987-1.134-.4-4.547-2.105-4.824-3.528-.254-1.235 2.725-3.317 2.327-4.093.302.588-7.163-2.07-7.32-1.999-.193.47 0 .835.579 1.094-2.05-2.352-5.427 6.021-4.414 5.88.482-.059-3.051-.541-2.075 0-2.532-1.435-2.146-2.858-5.173-.741-1.966 1.387-1.267 3.246-2.412 4.48-.302.33-.507-1.681-.977-1.376-1.628 1.071-.362 2.446-1.833 3.622-1.821 1.447-2.738 1.541-4.74 2.517-2.629 1.258-4.498 1.647-6.778 3.74a1.086 1.086 0 0 1-.216-.491 1.058 1.058 0 0 1 .048-.532c0 .529-.652 2.187-.724 3.069-.072.882.868 4.292.615 4.81a1.794 1.794 0 0 1-.917-.835c.185.378.335.772.447 1.176a38.808 38.808 0 0 1-1.098-.87c-.434 1.058 2.846 6.691 3.16 7.949.157.647.121 6.739-.157 6.174 2.099 4.199 5.138 1.329 8.611.33 2.846-.812 4.679-1.4 7.429-2.411 2.123-.776 6.633-2.352 8.948-1.976 1.424.224 8.539 5.657 6.911 6.374.494-.212 3.425-3.763 3.618-3.598.916.835-1.484 3.092-1.604 3.61-.434 2.034 2.412-1.599 1.64-1.011 1.025-.8.543 2.481.446 2.222-.096-.259 3.365 4.34 3.691 4.598 1.953 1.647 6.814.118 6.765.094a2.82 2.82 0 0 1 0 1.106c-.446-.541 1.616.67 2.111 1.176-1.001-.929 5.716-2.975 5.523-2.764 1.025-1.176 1.616-6.338 2.412-8.02.495-1.376 2.521-9.632 3.112-10.102Z" stroke="gray" stroke-miterlimit="10"/><path d="M492.41 356.057c.374.365 1.628.259 1.833-.258.205-.518-2.195-.071-1.833.258ZM507.834 366.206a12.604 12.604 0 0 1-2.629-.811c.458-.129.085 6.891 3.932 4.916 1.941-1.047 2.689-4.575-1.303-4.105ZM540.867 378.46c.241.071 1.025-.141.579-.729-.447-.588-1.158.565-.579.729ZM556.291 359.997c-.916 1.635-2.918-2.458-3.099-2.446a.841.841 0 0 0 0 .917c.157-.235-3.027-4.457-3.69-4.457-.073 0 2.291 4.563 2.496 5.128.712 2.022-1.628 1.94-1.544 3.045 0-.082 1.701 4.704 1.604 4.599 1.954 3.575 6.115-10.149 4.233-6.786ZM550.732 365.877c-1.917-1.458-13.447 8.585-9.961 10.866 3.485 2.282 11.577-9.596 9.961-10.866ZM558.305 322.224c.374.153 1.604-.282 1.604-.906 0-.623-2.17.73-1.604.906ZM556.195 324.2c.579.588 1.737.541 1.773-.506.036-1.047-2.292-.012-1.773.506ZM358.363 117.118a2.501 2.501 0 0 0-1.447.882c.639 1.364 6.536-1.376 6.56-1.764.097-1.811-4.764.364-5.113.882ZM366.877 117.894c0-.776-2.412.082-1.905.247.506.165 1.905.529 1.905-.247ZM356.18 116.73a6.398 6.398 0 0 1 2.593-.541c.302-.8-5.258 0-5.089.447a1.707 1.707 0 0 0 2.496.094ZM358.508 155.608c1.326 1.306 2.135-.588 2.822-.87.941-.364-5.27-1.552-2.822.87ZM368.288 140.908a55.908 55.908 0 0 0-5.185 5.645c0 .141 2.629 2.282 2.412 2.352-.23-.459-.145-.8.253-1.011-.241 0 6.585 5.574 6.886 2.352.084-.859-3.003-2.705-3.136-3.905-.132-1.199 1.206-2.434 1.725-3.528a18.374 18.374 0 0 1 3.099-3.986c2.027-1.823 16.716-7.832 16.064-8.373-1.567-1.306-14.665 2.869-16.787 4.163-1.146.776-5.294 6.291-5.331 6.291ZM511.948 137.851a4.224 4.224 0 0 0 1.943.042 4.17 4.17 0 0 0 1.747-.83c.314-3.352-14.846 0-3.69.788ZM500.297 139.544c0-.729-2.412.271-1.447.635.543.2 1.447.094 1.447-.635ZM435.728 126.514c.917.553 9.093-.776 9.371-2.352.277-1.576-4.74-2.023-4.583-.8-.905-6.938-3.606 3.869-4.788 3.152ZM428.673 119.646a4.21 4.21 0 0 0-1.049 1.458c2.291 2.141 7.875 3.787 8.357 0 .41-3.21-7.308-2.328-7.308-1.458ZM426.261 118.282c1.483.67-1.303.741-1.472.835-.795.388 2.955.176 3.618-.094.664-.271 5.645-1.693 4.728-2.787-3.678-4.516-7.586 1.729-6.874 2.046ZM455.385 138.674c-1.049 2.246 1.846.67 1.87.294a1.198 1.198 0 0 0-.862-.589 1.224 1.224 0 0 0-1.008.295ZM367.927 116.095c.735.799 5.174.882 5.366-.529.061-.483-3.69-1.176-3.919-1.094.639-.094-1.049 2.046-1.447 1.623ZM425.079 114.836c.181-.729-2.834-.411-2.05.283.277.247 1.869.447 2.05-.283ZM561.188 150.058c.205.152 4.221-.118 3.425-1.035-1.881-2.199-5.909.929-5.608 1.082a43.847 43.847 0 0 1 2.183-.047ZM494.46 136.534a7.397 7.397 0 0 0 4.969.976c1.206-.224 4.354-2.035 3.16-2.446.567.2 2.231 3.904 3.208 1.034.82-2.352-1.496-1.811-3.618-2.481-.181-.059-3.92-.153-3.944-.153.567-.106-7.308 1.2-3.775 3.07ZM503.939 142.755c2.412-.565-6.247-3.387-4.547-.776.543.846 3.739.976 4.547.776Z" stroke="gray" stroke-miterlimit="10"/><path d="m572.971 165.357 1.725.388c.446 0-.567-.576-.435-.658-.518.317 3.052-.882 2.231-1.176.061 0-6.994-4.093-7.091-2.67.109-1.587.712 2.564.471 1.8-1.303-4.199-10.107-8.797-15.039-9.832-2.738-.576-7.405-.482-9.069.271.132-.071 1.121 2.058-.23 2.869-.627.376-3.618-2.187-2.918-2.505.699-.317 1.58 1.117 1.761-.247.132-1.105-5.777.447-6.633.565a33.524 33.524 0 0 1-4.294-.318c-1.869-.176-.868 1.435-1.64 1.8.663-.306-2.412-2.893-2.412-2.87-2.689-2.222-2.303-2.634-7.308-3.01-1.532-.118-9.021 0-9.781-2.223-.217-.659 2.28.129 1.616-.953-1.471-2.352-7.441.341-7.513.588.42-.239.823-.506 1.206-.799a7.19 7.19 0 0 0-1.725-.565c-.518-.823 2.412 0 2.412-.435.434-2.517-12.458-1.035-11.191.682a1.365 1.365 0 0 0 1.206 0c-.82-.447.144 3.046.06 1.988 0 .2-2.931-.33-3.413 0 .25.246.55.438.88.564 0 0-8.14-1.505-8.695-1.635-.555-.129-1.483 3.317-2.713 3.246-1.834-.106-3.233-4.363-4.161-4.304a3.331 3.331 0 0 0 1.652.318c2.328-1.329-5.801-6.033-7.537-5.681-1.267.259-1.532 2.905-1.99 2.976-.688.117-7.236-.153-7.417-.894-.121-.4.88-.894.458-1-3.377-.858-6.03.683-8.128.882-.555 0 .108-1.916-.712-2.058-.398-.07-5.897 0-5.403.6.302.106.615.188.929.271.084.705-6.886 1.787-7.031 2.163 1.495-3.751 12.771-4.704 11.855-8.667-.278-1.176.47-2.152-2.026-3.316-3.184-1.458-5.584.87-8.442.176a7.681 7.681 0 0 1 1.109-1.528c0 .305-3.992-.753-4.486-.553.338-.141 2.75-.529 2.219-1.341-1.821-2.705-6.03.741-7.55 1.823.784-.553-2.93 4.245-3.063 1.988.305.309.64.589 1.001.834.169-.517-4.269.447-4.498.365.132-.317.277-.623.434-.929-1.68.177-3.341.488-4.969.929.216.333.551.577.941.682-.073-.553-7.429 1.905-7.972 2.152-1.736.788-.844.718-1.592 1.694-.434 0-.88 0-1.314-.083-.157.165 1.507.929 1.519 1.07-.399.06-.802.088-1.206.083 0 0 1.833 1.058 1.001 1.799-.494.435-3.352.2-4.172.365-11.433 2.352 0 3.104-2.22 6.056-.88 1.176-6.596-3.681-8.273-2.058-.144.141 1.845 1.494 1.399 1.611-.868.235-2.195-.999-2.822.177-.494.94 4.04 2.434 3.691 2.845 0 0-4.824-.976-4.824-1.046-.953-1.059 1.64-4.081-.386-4.704-2.026-.623-3.22 8.879-2.412 9.961 2.183 2.893 6.259 1.364 7.634 5.774.723 2.352-4.185-3.27-2.051-2.352-1.459-.612-.988-1.847-2.918-1.517-2.75.458-.133 1.987-1.206 3.257-1.206 1.494-2.834 3.658-4.511 4.022-.458.106-4.57-.106-4.196-1.176-.061.141 5.427-.541 6.343-3.528.579-1.893-.386-3.41-.808-5.574-.12-.623.181-7.15.229-7.056-3.244-5.21-8.647.729-8.924 4.422.072-1.023-.121 3.833-.362 3.222 0 0 5.861 3.669 2.412 4.21-2.412.4-12.06-7.903-15.039-6.245.784-.435 5.234 7.456.941 5.763-1.688-.671.06-.823-3.823-.482 0 0-6.211 1.011-5.729.635.483-.377 1.339-.765 1.206-1.705 0 .599-8.116 3.186-9.25 3.669-1.579.67-1.206 3.528-4.124 1.634-2.919-1.893 1.459-1.811 1.821-2.222 1.314-1.541-5.355-3.211-5.113-2.235 0-.27 1.567 4.881.313 3.987 3.124 2.199-.494 1.987-.699 2.14-3.618 2.823-3.618-.223-4.33 4.822-.121.846-2.991-.859-3.437-.518-.591-.364-1.206-.741-1.749-1.117-1.061.482-1.206 1.106-.482 1.882 1.749-.965 2.315 3.704-.736 1.352-.748-.576-4.884-9.408-6.573-8.632 1.206-.564 18.332 7.386 13.086-1.775-1.001-1.764-11.674-6.163-12.579-5.057a2.463 2.463 0 0 0 1.134-.388c-.145-1.176-2.762 0-3.052-.271-.711-.764-2.411.953-2.93-.929.096.365 2.774-.341 2.846-.705.567-3.046-4.92-.33-4.245-.306-.543 0 .289-1.647.241-1.729-1.109-2.081-2.05 1.764-2.665 1.764-.217 0 .145-1.823-.241-1.576-.736.765-1.46 1.541-2.195 2.352-.796.153 1.556-2.516 1.543-2.575-.229-1.388-2.665 1.27-2.653 1.27.76-.635-3.063 2.117-1.941 1.787-1.472.435.386-3.234.566-2.552.097.318-2.231.259-2.195.8.331.32.553.73.64 1.176a5.094 5.094 0 0 0-1.737-.059c.197.355.5.642.868.824a6.598 6.598 0 0 1-2.038-.683c.097 0 .651 2.035 0 1.647-1.133-.729-.892-1.905-2.412-1.235-.12 0-3.304 2.352-3.244 2.705.06.353 1.556-.306 1.315.929 0 0-2.69 0-2.593.118.108-.459.229-.906.374-1.365a57.475 57.475 0 0 1-4.583 3.963c1.206 0 3.895-2.893 5.173-1.74 0 0-.192 1.27-.217 1.282-3.618 1.411-4.631 7.138-7.971 8.561-.29.129 1.363 1.176.808 1.411-1.906.718-1.918 1.435-3.498 2.705-.12.094-1.206-1.352-1.278-.447-.181 1.858-1.122.424-2.074 1.811.082.16.197.301.338.414.142.113.306.197.482.245-1.013-2.188-3.618 3.528-3.522 3.081-.579 3.457 1.737 2.352 1.918 2.905.518 1.775-2.111.94-1.99.846a9.845 9.845 0 0 0-.265 1.553c0 .646 1.411-.706 1.676 0 .181.47-.88.964-1.025 1.176-1.785 2.657 6.03.599 5.101.799 1.206-.27 1.918-2.211 2.641-2.622.435-.259 3.811 10.019 4.149 10.137 1.592.588 4.908-4.128 5.439-4.281-.217.541-.494.671-.844.388.313-2.763 3.702-4.951 3.618-7.056 0-2.751-3.196-1.446-2.159-5.491.591-2.352 2.412-2.552 3.618-4.211.977-1.352 2.581-5.256 4.426-5.88 8.575-2.763-1.99 6.986-2.255 7.48-.663 1.176-.181 5.95.41 6.527 2.412 2.352 6.934.611 9.551-.083.219-.351.465-.685.736-.999a7.24 7.24 0 0 0-.736.999 6.119 6.119 0 0 1 2.967 1.176c.579.659-7.356 1.506-7.007 1.341-5.089 2.352-.181 2.281-1.459 3.716-1.519 2.352-1.833.565-2.412 1.07-.205.177-3.98.447-2.581 3.199 1.363 2.987-1.338 3.716-3.039 4.316.145 0-4.438.435-5.535.576-2.412.282-1.134.612-2.292-1.011-.494-.682-3.292 1.881-3.811 1.505a2.077 2.077 0 0 1 0-1.117c-.663-.177-2.677 0-2.412-1.705 0-.306 1.749.905 1.894.153.265-1.423-.832-.483-1.206-1.176-.205-.318 1.881-3.752.796-4.916-.736-.788-1.954 1.893-1.954 1.893-.784.765-1.544-.6-1.664 2.587 0 1.024 2.014 3.352 1.495 4.352-.386.764-4.764 1.552-5.584 2.069a39.046 39.046 0 0 0-4.112 4.011 21.26 21.26 0 0 1-2.786 2.704c-1.206.553-3.835.236-4.233.459-.905.494.832 1.835 0 2.505-.832.67-3.22-1.411-3.775-.388-1.519 2.74.748.658 2.087 2.74 1.833 2.858 4.679 6.268.422 8.373-1.978.988-6.826-1.552-8.442-.706-3.027 1.611-.664 1.47-1.315 4.21-1.327 5.586-1.206 7.927 3.51 9.408 3.292 1.047 6.777.389 9.515-3.186 2.171-2.846 3.473-7.786 6.79-9.797-.748.459 6.934-.846 6.295-.87 3.292.165 1.206-.294 4.052 1.835-.084-.071 10.854 9.714 7.767 9.714 1.748 0 1.206-4.316 1.326-4.422a2.224 2.224 0 0 1 1.068.079c.343.113.652.308.898.568-1.206-.353-12.06-11.76-6.753-11.478.723 0 6.428 6.327 8.249 7.326-1.785-1.023 4.763 9.726 4.763 7.221 0-2.211-2.954 5.48.905 3.41a4.877 4.877 0 0 0-.266-1.658c.348.094.715.094 1.062 0 .567-.682-1.206-.588-.82-.941.386-.352 2.207.659 1.941-.776-.313-1.74-1.278 0-1.941-.694.217.236-.278-3.528-.591-3.339.611.17 1.237.288 1.869.352 1.025-.447 6.5-.411 7.827-1.705-.35.341-2.195-2.858-2.074-3.528a21.22 21.22 0 0 1 2.629-4.034c.627-.87.916-2.869 2.219-3.457.82-.376 4.486-.235 4.691.847a8.214 8.214 0 0 1-2.05 1.176c-.072-.377 1.664 2.069 1.616 2.022-.048-.047 4.715-1.176 4.824-1.317.277-.47-4.293-.211-2.099-2.505.519-.529 5.657-2.352 6.03-1.634.085.176-3.617 3.528-3.485 4.163.483 2.246 7.538 3.469 7.309 5.88-.314 3.316-4.366 2.152-6.742 2.105-1.013 0-1.821-1.117-2.81-1.176-3.244-.2-5.15.529-8.213 1.364-3.931 1.07-8.285 3.058-3.726 7.585 2.134 2.129 4.221 1.176 6.633 1.27.796 0 5.644-1.023 6.295-.611.651.411-1.411 6.009-1.664 6.609l.808.364c0 .153 0 .33-.061.483 0-.153 0-.33.061-.483l-.784-.352c-2.412 5.515-6.995 4.386-12.965 3.292-1.58-.282-2.858-1.023-4.438-1.234-2.557-.341-1.206-2.352-4.607-.647-1.121.576-.808 2.787-.928 2.834-2.014.776-10.698-2.105-12.941-4.351-2.243-2.246 1.556-4.163-.144-6.503-1.038-1.423-8.105-.142-10.107.07a40.646 40.646 0 0 0-7.236 1.858c-2.472.682-4.474.482-6.777 1.07-1.954.506-1.206-.294-2.883.6 1.809-.941-3.895 4.14-3.196 3.046-.868 1.352-1.543 2.846-2.412 4.21-.627 1.058-.458 2.446-1.495 3.963-.675 1-2.05 1.176-2.81 1.929a26.497 26.497 0 0 0-5.005 7.82c-1.327 3.281-.543 3.81-.651 6.68-.109 2.669-.965 5.515-.881 8.15.097 2.892 1.436 4.057 2.883 6.338 3.256 5.163 7.115 9.937 13.362 10.584a28.92 28.92 0 0 0 9.781-1.329c.41-.106 4.595-2.352 5.029-1.846a39.688 39.688 0 0 0 3.546 1.858c.554.259.337 1.564 1.049 1.882.711.317 1.507-.741 2.098-.377 3.317 2.035 2.038.271 3.727 3.999.325.823-.652 3.457-.639 3.869.072 3.351 1.362 3.845 3.364 7.244 1.652 2.787 3.751 8.232 3.305 11.466-.483 3.422-3.051 6.386-3.208 10.137-.266 2.517 3.413 8.444 3.98 11.078 1.025 4.704 2.508 7.585 4.124 12.054 2.195 6.08.314 7.397 7.236 6.55 6.73-.799 10.553-2.857 14.074-9.408a31.88 31.88 0 0 0 1.206-5.233c2.412-3.387 3.835-1.54 4.498-5.962.471-3.14-1.543-3.128.205-6.139 1.399-2.423 5.247-2.787 6.742-4.963 3.087-4.527-.121-9.525-1.001-14.112-.953-4.904 1.616-8.443 5.077-12.089 1.423-1.517 18.464-19.028 13.17-20.933-3.618-1.329-7.706 3.763-11.879 1.176M380.529 116.342c1.387-1.905-6.03-.859-4.366.576.796.682 3.727.294 4.366-.576ZM372.75 117.259c-.699.294-1.399.541-2.11.776-.929 1.011 4.703.847 5.065-.329.229-.718-3.051-.635-2.955-.447ZM372.521 114.636a12.18 12.18 0 0 0 2.822-1.07c-.59-.788-4.739.753-4.823.482a2.46 2.46 0 0 0 2.001.588Z" stroke="gray" stroke-miterlimit="10"/><path d="M501.853 200.273c.964 2.352-1.918 9.067-.41 10.948-1.026-1.281 2.291.13 2.315.141.024.012-1.327-3.869-1.206-4.033 1.206-2.623 2.412-1.4 2.822-1.917.724-.953-3.534-11.525-2.931-11.901-1.712 1.07-1.109 5.539-.59 6.762ZM392.638 143.154a3.879 3.879 0 0 0 2.412-.588c.94-1.846-4.463.247-2.412.588ZM407.109 143.343c-.096-.777-1.76.223-1.206.541.555.317 1.291.235 1.206-.541ZM383.858 116.095l1.375-.706c.446-1.493-4.1.353-3.932.565a3.71 3.71 0 0 0 2.557.141ZM535.56 328.104c.097.588 3.92 3.704 4.463 3.316.542-.388-4.559-3.869-4.463-3.316ZM163.172 250.817c-.856-1.576.193 3.117.579 2.246a15.855 15.855 0 0 1-.579-2.246ZM188.341 276.607c1.134.247 1.507-.129 1.097-1.105-.808-.73-1.471.74-1.097 1.105ZM448.873 298.363c0-.435-1.206-.223-.808.388.398.612.808.047.808-.388ZM458.28 307.747a3.961 3.961 0 0 0 1.821.059c.808-.658-4.378-1.529-4.233-1.458.045-.355.233-.679.523-.899a1.41 1.41 0 0 1 1.021-.277c-1.351.882-13.158-2.987-12.374-.259.302 1.153 12.712 3.611 13.242 2.834ZM472.27 307.806c1.206 0 1.338-.153.494-.494-.603-.094-6.247.494-6.138.729.735 1.564 4.619-.176 5.644-.235ZM463.104 307.218c-.434 1.047-1.496-.364-2.05.353-1.134 1.482 3.895 1.447 4.329.423.266-.588-2.062-1.258-2.279-.776ZM449.741 292.53c3.437 3.422 1.761 6.374 7.429 6.668 4.715.235 4.981-3.422 8.044-7.162-.205.247-2.026-3.951-2.002-4.339.097-1.788 2.267-1.529 2.641-2.717.374-1.188-4.378-2.034-4.631-1.976-1.531.33-.76 2.964-3.389 2.764-.084 0-4.619 5.069-4.631 5.104.338-.788-5.849-.729-3.461 1.658ZM431.748 291.213c-.097.482.41 1.893.953 1.317.542-.576-.845-1.799-.953-1.317ZM434.003 295.399c-.096.236.41 1.176.724.918.313-.259-.446-1.694-.724-.918Z" stroke="gray" stroke-miterlimit="10"/><path d="M445.328 300.797c-.133-2.046 1.049-1.505 1.037-2.822 0-.576-1.918-2.352-1.954-1.258.368.353.692.748.965 1.176-.398.976-5.065-5.963-5.307-6.221-1.085-1.176-10.516-8.232-10.938-7.315-.302.682 7.236 11.266 8.237 12.607 1.001 1.34 8.394 10.325 7.96 3.833ZM468.218 310.464c0-1.317-2.69-.612-2.823-.823-.132-.212 2.823 1.999 2.823.823ZM465.167 297.881c-.217.388 2.87 4.786 1.592 5.304 1.206-.483.132-5.363 1.314-4.798 2.243 1.07-.241 4.092 2.762 1.811-1.592 1.176.084-8.044 1.302-5.434.157.353-6.789 2.129-5.053-.635 1.894-3.022 6.115.436 7.779-2.916-1.001 2.023-5.138-.447-6.512.459-2.147 1.411-1.99 4.139-3.184 6.209ZM479.505 298.998c1.314.48 2.67.838 4.053 1.07 1.688 0-4.873-3.716-4.053-1.07ZM479.735 291.354c0-3.269-2.786 3.469-.229 2.975 1.688-.329.229-3.034.229-2.975ZM474.609 309.594c.784-1.012 3.413-1.176 3.763-2.129.193-.564-4.04 1.259-4.438 1.306-.615.094-2.412 1.375-1.206 1.999a2.127 2.127 0 0 0 1.115-.322 2.05 2.05 0 0 0 .766-.854ZM476.37 299.092c.193.776 1.508 1.176 1.869.541.362-.635-2.086-1.446-1.869-.541ZM296.893 221.441c-.422.764.531 5.139 2.28 2.987 1.435-1.776-1.182-5.01-2.28-2.987ZM306.806 226.662c.326-.07-3.497-.329-3.159.659a11.498 11.498 0 0 0 3.352 2.093c.291-.902.637-1.785 1.037-2.646a.973.973 0 0 0-.595-.27.99.99 0 0 0-.635.164Z" stroke="gray" stroke-miterlimit="10"/><path d="M34.974 536.303H560.96" stroke="#779F88" stroke-linecap="round" stroke-linejoin="round"/><path d="M88.038 494.978s-31.947-54.707-24.578-68.619c7.369-13.912 26.218 11.113 26.218 11.113s-16.39-51.003-7.368-73.265c9.02-22.261 24.566 0 25.326 15.77.76 15.771-3.269 42.654-3.269 42.654s6.549-55.637 22.106-38.949c15.558 16.687-19.657 72.336-19.657 72.336s23.758-12.936 22.914 3.716c-.845 16.652-28.667 31.528-28.667 31.528" fill="#fff"/><path d="M88.316 484.783s-29.572-26.896-15.172-38.95c14.4-12.054 21.985 12.936 21.985 12.936s-15.919-76.969 9.866-79.756c25.784-2.787 6.813 66.773 6.813 66.773s21.986-29.682 20.502-5.562c-1.483 24.12-34.141 44.559-34.141 44.559M102.836 479.879l-19.983-21.11" stroke="#263238" stroke-miterlimit="10"/><path d="m98.675 481.513 5.403-61.705" stroke="#779F88" stroke-miterlimit="10"/><path d="m97.831 477.044 17.909-23.143" stroke="#263238" stroke-miterlimit="10"/><path d="M123.724 472.74h-55.26l5.524 63.563H118.2l5.524-63.563Z" fill="#263238"/><path d="M504.26 242.72h-32.531c-6.577 0-12.885 2.495-17.535 6.936-4.651 4.44-7.263 10.463-7.263 16.743v8.747l-16.211-.594 16.259 10.134v6.557c0 6.281 2.613 12.305 7.263 16.748 4.65 4.442 10.957 6.94 17.535 6.943h32.532c6.578-.003 12.885-2.501 17.535-6.943 4.651-4.443 7.263-10.467 7.263-16.748v-24.844a22.76 22.76 0 0 0-1.892-9.072 23.648 23.648 0 0 0-5.389-7.688 24.905 24.905 0 0 0-8.061-5.13 25.827 25.827 0 0 0-9.505-1.789Z" fill="#fff" stroke="#263238" stroke-miterlimit="10"/><path d="M472.16 270.001h1.331a.38.38 0 0 1 .146.023.382.382 0 0 1 .123.077.337.337 0 0 1 .105.257v19.023a.331.331 0 0 1-.099.266.36.36 0 0 1-.275.105h-1.331a.368.368 0 0 1-.285-.099.347.347 0 0 1-.104-.272v-8.569a.11.11 0 0 0-.006-.057.134.134 0 0 0-.143-.086h-9.362a.15.15 0 0 0-.06.006.132.132 0 0 0-.051.031.113.113 0 0 0-.032.049.123.123 0 0 0-.007.057v8.569a.322.322 0 0 1-.02.147.35.35 0 0 1-.215.204.366.366 0 0 1-.154.02h-1.331a.366.366 0 0 1-.368-.224.337.337 0 0 1-.021-.147v-19.023a.332.332 0 0 1 .026-.142.358.358 0 0 1 .213-.196.38.38 0 0 1 .15-.019h1.331a.38.38 0 0 1 .279.095.33.33 0 0 1 .11.262v8.44a.127.127 0 0 0 .039.106.134.134 0 0 0 .111.037h9.362a.136.136 0 0 0 .143-.085.115.115 0 0 0 .006-.058v-8.44a.344.344 0 0 1 .239-.338.38.38 0 0 1 .15-.019ZM488.522 286.139a.334.334 0 0 1 .21-.203.355.355 0 0 1 .298.031l.852.457c.21.115.3.286.18.472a5.62 5.62 0 0 1-2.259 2.33 5.981 5.981 0 0 1-3.23.754 5.655 5.655 0 0 1-3.394-.865 5.249 5.249 0 0 1-2.139-2.662 10.499 10.499 0 0 1-.569-3.899 12.481 12.481 0 0 1 .269-3.27 5.335 5.335 0 0 1 2.098-2.999 5.784 5.784 0 0 1 3.616-1.043 5.693 5.693 0 0 1 4.005 1.262 5.193 5.193 0 0 1 1.902 3.594c.156.944.216 1.901.179 2.856a.318.318 0 0 1-.103.268.361.361 0 0 1-.285.089H480.7a.15.15 0 0 0-.06.006.132.132 0 0 0-.051.031.113.113 0 0 0-.032.049.123.123 0 0 0-.007.057 8.585 8.585 0 0 0 .18 2.071 3.642 3.642 0 0 0 1.473 2.081 3.949 3.949 0 0 0 2.535.675 4.208 4.208 0 0 0 2.222-.538 3.946 3.946 0 0 0 1.562-1.604Zm-7.733-6.498a7.652 7.652 0 0 0-.239 1.928.123.123 0 0 0 .007.057.12.12 0 0 0 .032.049.12.12 0 0 0 .051.03.134.134 0 0 0 .06.007h7.597a.136.136 0 0 0 .101-.043.118.118 0 0 0 .028-.047.12.12 0 0 0 .006-.053 14.153 14.153 0 0 0-.165-1.814 3.519 3.519 0 0 0-1.376-2.047 3.818 3.818 0 0 0-2.437-.709 3.619 3.619 0 0 0-2.35.667 3.331 3.331 0 0 0-1.315 1.975ZM494.699 289.38v-19.022a.316.316 0 0 1 .025-.142.357.357 0 0 1 .364-.215h1.331a.354.354 0 0 1 .274.095.316.316 0 0 1 .08.121.309.309 0 0 1 .02.141v19.022a.318.318 0 0 1-.093.272.34.34 0 0 1-.129.081.375.375 0 0 1-.152.019h-1.331a.388.388 0 0 1-.155-.02.347.347 0 0 1-.214-.204.325.325 0 0 1-.02-.148ZM501.564 289.38v-19.022a.335.335 0 0 1 .105-.257.382.382 0 0 1 .123-.077.38.38 0 0 1 .146-.023h1.331a.38.38 0 0 1 .279.095.344.344 0 0 1 .11.262v19.022a.34.34 0 0 1-.235.352.366.366 0 0 1-.154.02h-1.331a.36.36 0 0 1-.355-.228.32.32 0 0 1-.019-.144ZM508.353 286.053a11.699 11.699 0 0 1-.419-3.47 12.301 12.301 0 0 1 .389-3.442 5.91 5.91 0 0 1 2.249-2.808 6.354 6.354 0 0 1 3.531-1.065c1.264 0 2.497.372 3.531 1.065a5.912 5.912 0 0 1 2.25 2.808c.303 1.133.439 2.301.403 3.47a11.73 11.73 0 0 1-.403 3.471 5.863 5.863 0 0 1-2.227 2.838 6.298 6.298 0 0 1-3.539 1.08 6.295 6.295 0 0 1-3.538-1.08 5.857 5.857 0 0 1-2.227-2.838v-.029Zm9.571-.585c.189-.941.269-1.899.24-2.857a11.617 11.617 0 0 0-.24-2.856 3.764 3.764 0 0 0-1.414-1.997 4.07 4.07 0 0 0-2.392-.771c-.864 0-1.704.271-2.392.771a3.774 3.774 0 0 0-1.414 1.997c-.194.94-.274 1.899-.239 2.856-.037.958.043 1.917.239 2.857.23.795.727 1.497 1.414 1.997.688.5 1.528.77 2.392.77a4.07 4.07 0 0 0 2.392-.77 3.764 3.764 0 0 0 1.414-1.997ZM487.561 253.051h-20.077v13.267h20.077v-13.267Z" fill="#263238"/><path d="m468.265 254.169.183.373.39.058-.28.292.061.407-.354-.186-.341.186.061-.407-.281-.292.39-.058.171-.373ZM468.265 256.627l.183.373.39.058-.28.291.061.408-.354-.198-.341.198.061-.408-.281-.291.39-.058.171-.373ZM468.265 259.073l.183.373.39.058-.28.291.061.408-.354-.198-.341.198.061-.408-.281-.291.39-.058.171-.373ZM468.265 261.519l.183.373.39.07-.28.279.061.408-.354-.187-.341.187.061-.408-.281-.279.39-.07.171-.373ZM468.265 263.977l.183.372.39.058-.28.292.061.407-.354-.198-.341.198.061-.407-.281-.292.39-.058.171-.372ZM470.107 255.602l.171.373.39.058-.281.291.062.408-.342-.187-.354.187.061-.408-.28-.291.39-.058.183-.373ZM470.107 258.06l.171.372.39.059-.281.291.062.407-.342-.198-.354.198.061-.407-.28-.291.39-.059.183-.372ZM470.107 260.506l.171.372.39.059-.281.291.062.407-.342-.186-.354.186.061-.407-.28-.291.39-.059.183-.372ZM470.107 262.952l.171.372.39.059-.281.291.062.407-.342-.186-.354.186.061-.407-.28-.291.39-.059.183-.372ZM471.937 254.169l.183.373.39.058-.293.292.073.407-.353-.186-.354.186.073-.407-.293-.292.403-.058.171-.373ZM471.937 256.627l.183.373.39.058-.293.291.073.408-.353-.198-.354.198.073-.408-.293-.291.403-.058.171-.373ZM471.937 259.073l.183.373.39.058-.293.291.073.408-.353-.198-.354.198.073-.408-.293-.291.403-.058.171-.373ZM471.937 261.519l.183.373.39.07-.293.279.073.408-.353-.187-.354.187.073-.408-.293-.279.403-.07.171-.373ZM471.937 263.977l.183.372.39.058-.293.292.073.407-.353-.198-.354.198.073-.407-.293-.292.403-.058.171-.372ZM473.778 255.602l.171.373.391.058-.281.291.061.408-.342-.187-.353.187.061-.408-.281-.291.39-.058.183-.373ZM473.778 260.506l.171.372.391.059-.281.291.061.407-.342-.186-.353.186.061-.407-.281-.291.39-.059.183-.372ZM473.778 262.952l.171.372.391.059-.281.291.061.407-.342-.186-.353.186.061-.407-.281-.291.39-.059.183-.372ZM475.608 254.169l.171.373.39.058-.281.292.074.407-.354-.186-.354.186.061-.407-.28-.292.39-.058.183-.373ZM475.608 256.627l.171.373.39.058-.281.291.074.408-.354-.198-.354.198.061-.408-.28-.291.39-.058.183-.373ZM475.608 259.073l.171.373.39.058-.281.291.074.408-.354-.198-.354.198.061-.408-.28-.291.39-.058.183-.373ZM475.608 261.519l.171.373.39.07-.281.279.074.408-.354-.187-.354.187.061-.408-.28-.279.39-.07.183-.373ZM475.608 263.977l.171.372.39.058-.281.292.074.407-.354-.198-.354.198.061-.407-.28-.292.39-.058.183-.372ZM477.437 255.602l.183.373.39.058-.28.291.061.408-.354-.187-.354.187.074-.408-.281-.291.39-.058.171-.373ZM477.437 258.06l.183.372.39.059-.28.291.061.407-.354-.198-.354.198.074-.407-.281-.291.39-.059.171-.372ZM477.437 260.506l.183.372.39.059-.28.291.061.407-.354-.186-.354.186.074-.407-.281-.291.39-.059.171-.372ZM477.437 262.952l.183.372.39.058-.28.292.061.407-.354-.186-.354.186.074-.407-.281-.292.39-.058.171-.372ZM479.28 254.169l.171.373.39.058-.281.292.061.407-.341-.186-.354.186.061-.407-.28-.292.39-.058.183-.373ZM479.28 256.627l.171.373.39.058-.281.291.061.408-.341-.198-.354.198.061-.408-.28-.291.39-.058.183-.373ZM479.28 259.073l.171.373.39.058-.281.291.061.408-.341-.198-.354.198.061-.408-.28-.291.39-.058.183-.373ZM479.28 263.977l.171.372.39.058-.281.292.061.407-.341-.198-.354.198.061-.407-.28-.292.39-.058.183-.372ZM481.109 255.602l.171.373.402.058-.293.291.074.408-.354-.187-.354.187.073-.408-.292-.291.402-.058.171-.373ZM481.109 258.06l.171.372.402.059-.293.291.074.407-.354-.198-.354.198.073-.407-.292-.291.402-.059.171-.372ZM481.109 260.506l.171.372.402.059-.293.291.074.407-.354-.186-.354.186.073-.407-.292-.291.402-.059.171-.372ZM481.109 262.952l.171.372.402.058-.293.292.074.407-.354-.186-.354.186.073-.407-.292-.292.402-.058.171-.372ZM482.939 254.169l.183.373.39.058-.28.292.061.407-.354-.186-.342.186.061-.407-.28-.292.39-.058.171-.373ZM482.939 259.073l.183.373.39.058-.28.291.061.408-.354-.198-.342.198.061-.408-.28-.291.39-.058.171-.373ZM482.939 261.519l.183.373.39.07-.28.279.061.408-.354-.187-.342.187.061-.408-.28-.279.39-.07.171-.373ZM482.939 263.977l.183.372.39.058-.28.292.061.407-.354-.198-.342.198.061-.407-.28-.292.39-.058.171-.372ZM484.781 255.602l.171.373.39.058-.281.291.073.408-.353-.187-.354.187.061-.408-.28-.291.39-.058.183-.373ZM484.781 258.06l.171.372.39.059-.281.291.073.407-.353-.198-.354.198.061-.407-.28-.291.39-.059.183-.372ZM484.781 260.506l.171.372.39.059-.281.291.073.407-.353-.186-.354.186.061-.407-.28-.291.39-.059.183-.372ZM484.781 262.952l.171.372.39.059-.281.291.073.407-.353-.186-.354.186.061-.407-.28-.291.39-.059.183-.372ZM486.61 254.169l.183.373.39.058-.28.292.061.407-.354-.186-.354.186.073-.407-.28-.292.39-.058.171-.373ZM486.61 256.627l.183.373.39.058-.28.291.061.408-.354-.198-.354.198.073-.408-.28-.291.39-.058.171-.373ZM486.61 259.073l.183.373.39.058-.28.291.061.408-.354-.198-.354.198.073-.408-.28-.291.39-.058.171-.373ZM486.61 261.519l.183.373.39.07-.28.279.061.408-.354-.187-.354.187.073-.408-.28-.279.39-.07.171-.373ZM486.61 263.977l.183.372.39.058-.28.292.061.407-.354-.198-.354.198.073-.407-.28-.292.39-.058.171-.372ZM120.666 264.605l1.012 1.946 2.232.302-1.622 1.515.39 2.119-2.012-1.001-2.001 1.001.39-2.119-1.622-1.515 2.232-.302 1.001-1.946ZM127.167 263.848l.524 1.002 1.147.163-.83.769.196 1.095-1.037-.513-1.025.513.195-1.095-.841-.769 1.158-.163.513-1.002ZM128.57 268.903l.512 1.002 1.159.151-.842.781.196 1.095-1.025-.513-1.037.513.195-1.095-.829-.781 1.147-.151.524-1.002ZM125.13 272.211l.512.99 1.159.163-.83.781.195 1.095-1.036-.525-1.025.525.195-1.095-.842-.781 1.159-.163.513-.99ZM120.36 273.725l.512.99 1.159.163-.829.781.195 1.095-1.037-.513-1.025.513.196-1.095-.842-.781 1.159-.163.512-.99Z" fill="#fff"/><path d="M365.997 182.844a47.729 47.729 0 0 0-3.808-18.667 48.73 48.73 0 0 0-10.844-15.826 50.148 50.148 0 0 0-16.229-10.574 51.141 51.141 0 0 0-19.144-3.713h-17.414c-13.268 0-25.992 5.139-35.373 14.287-9.382 9.149-14.652 21.556-14.652 34.493" stroke="#263238" stroke-width="3" stroke-linecap="round" stroke-linejoin="round"/><path d="M365.997 218.971v-36.127M248.533 182.844v36.127" stroke="#263238" stroke-width="6" stroke-linecap="round" stroke-linejoin="round"/><path d="M284.46 273.173s3.123 21.274 2.496 26.742c-.627 5.469-1.869 10.937-17.451 4.857-15.581-6.08-43.621 4.869-61.699 26.131-18.078 21.262-52.34 92.375-52.34 100.877 0 8.503 6.85 19.992 19.296 21.874 12.446 1.881 41.752-32.811 41.752-32.811s12.458 68.667 12.458 74.088c0 5.422-5.584 41.325-5.584 41.325h176.365l-6.862-44.359 12.47-97.843s51.725 68.667 62.941 71.736c11.216 3.069 28.667-2.434 33.033-15.194 4.365-12.759-2.497-26.131-11.228-35.856-8.732-9.726-63.556-95.409-73.566-103.3-10.01-7.891-38.013-8.514-47.987-6.08-9.974 2.434-26.797 6.08-31.163 3.646-4.366-2.435-4.354-25.519 0-35.856.036.023-37.977 9.749-52.931.023Z" fill="#fff" stroke="#263238" stroke-linecap="round" stroke-linejoin="round"/><path d="M260.098 458.205a64.335 64.335 0 0 0 6.138 1.964M227.934 419.22s2.774 23.615 25.591 35.986M298.907 350.06l12.132 17.287M418.88 366.583l3.208-6.515M413.682 358.245l-8.322 35.856 10.227-20.803M451.044 422.854s13.169-8.232 26.134-8.232" stroke="#263238" stroke-linecap="round" stroke-linejoin="round"/><path d="M424.247 447.515a180.314 180.314 0 0 0 23.866-15.076c10.824-8.101 24.417-11.854 37.989-10.49 12.434 1.305 19.164 16.381 19.489 31.47.326 15.088-8.068 24.249-23.191 26.542-15.123 2.293-32.948-.976-44.031-3.599a149.63 149.63 0 0 0-17.825-3.281s-14.448-21.638 3.703-25.566Z" fill="#fff" stroke="#263238" stroke-linecap="round" stroke-linejoin="round"/><path d="M505.592 453.419c-.326-15.089-7.055-30.165-19.489-31.47-13.573-1.364-27.166 2.389-37.989 10.49l-1.689 1.258c14.472.482 43.73 6.245 39.147 45.652 13.121-3.069 20.333-11.948 20.02-25.93ZM284.459 273.173s3.123 21.274 2.496 26.742c-.47 4.104-1.29 8.232-8.237 7.433 9.938 15.84 38.797 53.025 65.727 2.352-3.135.188-5.668 0-7.019-.73-4.353-2.434-4.353-25.519 0-35.856 0 .059-38.013 9.785-52.967.059Z" fill="#fff" stroke="#263238" stroke-linecap="round" stroke-linejoin="round"/><path d="M284.459 273.173s.808 5.527 1.52 11.666a56.316 56.316 0 0 0 23.396 6.209c9.032.141 17.9-2.362 25.459-7.185a43.041 43.041 0 0 1 2.592-10.69s-38.013 9.726-52.967 0ZM250.209 199.626h-3.437c-4.223 0-7.647 3.338-7.647 7.456v28.53c0 4.117 3.424 7.455 7.647 7.455h3.437c4.222 0 7.646-3.338 7.646-7.455v-28.53c0-4.118-3.424-7.456-7.646-7.456Z" fill="#263238" stroke="#263238" stroke-linecap="round" stroke-linejoin="round"/><path d="M250.402 199.661h-3.835v43.371h3.835v-43.371Z" fill="#fff" stroke="#263238" stroke-linecap="round" stroke-linejoin="round"/><path d="M368.06 199.626h-3.437c-4.223 0-7.646 3.338-7.646 7.456v28.53c0 4.117 3.423 7.455 7.646 7.455h3.437c4.223 0 7.646-3.338 7.646-7.455v-28.53c0-4.118-3.423-7.456-7.646-7.456Z" fill="#263238" stroke="#263238" stroke-linecap="round" stroke-linejoin="round"/><path d="M368.264 199.661h-3.835v43.371h3.835v-43.371ZM219.046 233.93a8.936 8.936 0 0 0-4.083 1.405 8.662 8.662 0 0 0-2.9 3.134c-2.798 4.54-11.638 21.333-10.709 26.331.928 4.998 39.569 40.396 39.569 42.665 0 2.27-30.717 43.124-51.207 61.282-20.49 18.157-36.771 38.572-39.569 54.919-2.798 16.346 6.983 29.952 17.234 32.681 10.251 2.728 22.805-3.175 37.229-20.886 14.424-17.71 54.005-94.868 60.059-121.128 0 0 1.387-11.76-4.197-18.616s-19.549-22.697-19.549-22.697 2.798-31.317.47-33.586c-2.328-2.27-4.655 2.728-4.655 2.728s-2.159-10.502-5.126-9.996c-3.244.564-4.184 4.539-4.184 4.539s-2.328-9.137-8.382-2.775Z" fill="#fff" stroke="#263238" stroke-linecap="round" stroke-linejoin="round"/><path d="M236.738 242.103s-6.681 26.072-6.03 30.47M227.427 236.646s-7.079 25.355-7.983 28.883a8.482 8.482 0 0 0-.161 3.531 8.566 8.566 0 0 0 1.294 3.302M219.046 233.93s-9.998 27.189-9.998 30.058c0 2.87 2.267 6.386 2.267 6.386" stroke="#263238" stroke-linecap="round" stroke-linejoin="round"/><path d="M210.146 347.543a241.782 241.782 0 0 1-20.43 21.168c-20.502 18.146-36.771 38.573-39.569 54.919-2.798 16.347 6.983 29.953 17.234 32.682 10.251 2.728 22.805-3.176 37.229-20.886 8.309-10.184 24.928-40.055 38.701-68.596-20.985-5.433-29.644-13.901-33.165-19.287ZM257.445 177.117s-.808 63.187 1.628 75.041 24.301 31.987 49.446 32.775c25.145.788 44.96-21.721 47.384-33.575 2.424-11.854 0-59.235-.398-78.192-.398-18.957-28.353-35.939-56.682-31.599-28.329 4.339-42.994 20.533-41.378 35.55Z" fill="#fff" stroke="#263238" stroke-linecap="round" stroke-linejoin="round"/><path d="M319.011 202.789s1.616 11.055 3.244 13.419c1.628 2.363 4.45 5.539-1.206 7.902-5.656 2.364-10.13-.4-10.13-3.163" stroke="#263238" stroke-linecap="round" stroke-linejoin="round"/><path d="M325.089 241.88s-21.877 2.728-31.597-6.68c0 0 2.412 14.618 9.72 16.993 7.308 2.376 21.877-10.313 21.877-10.313Z" fill="#fff" stroke="#263238" stroke-linecap="round" stroke-linejoin="round"/><path d="m296.736 203.178 2.026 6.315" stroke="#263238" stroke-linecap="round" stroke-linejoin="round"/><path d="M287.824 209.105s5.668 3.528 16.197.388" stroke="#263238" stroke-width="2" stroke-linecap="round" stroke-linejoin="round"/><path d="m336.426 203.178 2.026 6.315" stroke="#263238" stroke-linecap="round" stroke-linejoin="round"/><path d="M327.514 209.105s5.668 3.528 16.208.388M284.99 192.123a21.14 21.14 0 0 1 7.499-6.103 21.7 21.7 0 0 1 9.506-2.188M323.872 183.033s11.746-3.152 19.85 5.88" stroke="#263238" stroke-width="2" stroke-linecap="round" stroke-linejoin="round"/><path d="M308.736 199.92a10.709 10.709 0 0 1 1.534 5.653 10.716 10.716 0 0 1-1.679 5.613l-.229.353a18.651 18.651 0 0 1-6.85 6.355 19.234 19.234 0 0 1-9.153 2.312h-2.533c-2.574 0-5.103-.66-7.334-1.913a14.52 14.52 0 0 1-5.377-5.225v0a11.645 11.645 0 0 1-.7-10.584 11.934 11.934 0 0 1 4.174-5.083 12.377 12.377 0 0 1 6.294-2.173l11.53-.706a11.391 11.391 0 0 1 5.946 1.271 11.037 11.037 0 0 1 4.377 4.127v0ZM322.002 199.92a10.709 10.709 0 0 0-1.534 5.653 10.716 10.716 0 0 0 1.679 5.613l.229.353a18.659 18.659 0 0 0 6.85 6.355 19.238 19.238 0 0 0 9.154 2.312h2.532c2.574 0 5.103-.66 7.334-1.913a14.512 14.512 0 0 0 5.377-5.225v0a11.596 11.596 0 0 0 .7-10.584v0a11.934 11.934 0 0 0-4.174-5.083 12.37 12.37 0 0 0-6.294-2.173l-11.518-.706a11.422 11.422 0 0 0-5.951 1.272 11.053 11.053 0 0 0-4.384 4.126v0ZM310.099 201.99s3.618-2.764 10.528 0M305.239 196.074h19.851M276.391 202.472h-18.946" stroke="#263238" stroke-linecap="round" stroke-linejoin="round"/><path d="M329.95 160.524s10.492 32.857 26.423 41.348c-.35-11.266-.76-21.85-.904-28.706-.41-18.957-28.353-35.939-56.682-31.599-28.329 4.339-42.934 20.533-41.318 35.55 0 0-.133 10.314-.121 23.403 13.676-5.751 49.688-21.768 72.602-39.996Z" fill="#263238"/><path d="M254.635 191.888s53.125-21.721 81.839-49.298M250.342 174.342s55.705-12.536 87.845-45.546M340.321 146.341s.857 21.31 24 40.949" stroke="#737373" stroke-linecap="round" stroke-linejoin="round"/><path d="M334.291 278.935s0 14.324-11.011 37.15c-11.01 22.827-11.481 45.653-4.136 62.658 7.344 17.005 27.087 23.731 48.24 16.123 21.153-7.609 23.867-41.631 21.575-62.223-2.291-20.591-22.914-44.758-27.545-56.847-4.631-12.09-7.803-18.346-7.803-18.346s-11.939 16.111-19.296 19.686l-.024 1.799Z" fill="#263238"/><path d="M342.034 262.918c2.653 19.535-.004 39.407-7.707 57.624-12.856 30.082-3.003 62.258 12 68.937 15.003 6.68 29.559 4.187 36.843-5.009" stroke="#737373" stroke-linecap="round" stroke-linejoin="round"/><path d="M347.605 256.239s14.569 33.422 8.575 58.494c-5.994 25.072-3.425 56.883 14.569 63.092 17.993 6.21 28.28-6.209 28.28-6.209" stroke="#737373" stroke-linecap="round" stroke-linejoin="round"/><path d="M365.177 277.959s12.422 45.958 12.422 69.772c0 23.814 15.002 20.063 18.861 8.362" stroke="#737373" stroke-linecap="round" stroke-linejoin="round"/><path d="M334.291 278.935s0 14.324-11.011 37.15c-11.01 22.827-11.481 45.653-4.136 62.658 7.344 17.005 27.087 23.731 48.24 16.123 21.153-7.609 23.867-41.631 21.575-62.223-2.291-20.591-22.914-44.758-27.545-56.847-4.631-12.09-7.803-18.346-7.803-18.346s-11.939 16.111-19.296 19.686l-.024 1.799Z" stroke="#263238" stroke-linecap="round" stroke-linejoin="round"/><path d="m390.938 405.635-78.303-3.08c-3.454-.136-6.367 2.484-6.506 5.852l-4.361 105.425c-.139 3.368 2.548 6.209 6.002 6.345l78.302 3.08c3.454.136 6.367-2.485 6.506-5.853l4.361-105.425c.14-3.368-2.547-6.208-6.001-6.344Z" fill="#779F88" stroke="#779F88" stroke-linecap="round" stroke-linejoin="round"/><path d="M430.832 448.28s-40.088-12.16-46.926-14.207c-6.838-2.046-46.226 26.637-47.793 30.729-1.568 4.093 4.196 4.105 4.196 4.105s-2.412 4.092 1.206 6.138a21.878 21.878 0 0 0 3.618 1.917s-2.098 4.61 2.099 6.151c4.197 1.54 9.986-2.564 9.986-2.564l9.455-6.656s-11.361 13.559-8.937 16.393c3.341 3.881 5.475-.282 5.475-.282l13.061-15.088 13.122-6.151s10.504 6.151 27.316 6.657c16.811.505 20.502-6.657 20.502-6.657" fill="#fff"/><path d="M430.832 448.28s-40.088-12.16-46.926-14.207c-6.838-2.046-46.226 26.637-47.793 30.729-1.568 4.093 4.196 4.105 4.196 4.105s-2.412 4.092 1.206 6.138a21.878 21.878 0 0 0 3.618 1.917s-2.098 4.61 2.099 6.151c4.197 1.54 9.986-2.564 9.986-2.564l9.455-6.656s-11.361 13.559-8.937 16.393c3.341 3.881 5.475-.282 5.475-.282l13.061-15.088 13.122-6.151s10.504 6.151 27.316 6.657c16.811.505 20.502-6.657 20.502-6.657" stroke="#263238" stroke-linecap="round" stroke-linejoin="round"/><path d="M345.217 476.962s14.726-9.855 18.392-13.418c3.666-3.563 15.545-11.007 19.211-11.007M366.757 473.928s7.236-7.973 9.961-9.161c2.726-1.188 6.706-2.975 6.706-2.975M340.31 468.907s20.502-14.112 27.521-18.264a100.05 100.05 0 0 1 13.109-6.55" stroke="#263238" stroke-linecap="round" stroke-linejoin="round"/><path fill="#fff" d="M466 251h25v18h-25z"/></svg>