<svg width="157" height="162" fill="none" xmlns="http://www.w3.org/2000/svg"><path d="M50.575 1 67.41 160.987" stroke="#2A3F33" stroke-linecap="round" stroke-linejoin="round"/><path d="m101.067 34.993-12.552 2.882-11.489 22.72-18.195-5.198-.512 4.956 22.627 9.387 8.094-11.232v19.596l24.296 1.05 4.97-22.208 8.875 7.838v20.633h5.226l3.138-25.858L121.7 37.094l-20.633-2.101Z" fill="#fff" stroke="#2A3F33" stroke-linecap="round" stroke-linejoin="round"/><path d="m89.041 58.508-.188-11.057" stroke="#2A3F33" stroke-linecap="round" stroke-linejoin="round"/><path d="m100.879 42.266 3.407 6.397s9.428 2.99 11.098 3.408c1.67.417 6.828-1.28 11.084-2.128 4.256-.849 17.926 5.966 17.926 5.966l11.946.431-6.397-7.677-23.044-3.42-11.946 3.851-8.081-2.141 1.724-3.34-3.838-5.98-3.879 4.633Z" fill="#2A3F33" stroke="#2A3F33" stroke-linecap="round" stroke-linejoin="round"/><path d="M102.106 33.162a2.694 2.694 0 0 0-3.138 2.1c-.512 2.614-1.037 9.146-1.037 9.146l6.262-1.832 7.327 3.138s2.343-6.801 1.037-9.145c-1.306-2.343-7.313-5.495-10.451-3.407Z" fill="#fff" stroke="#2A3F33" stroke-linecap="round" stroke-linejoin="round"/><path d="M100.798 29.512s.781 7.313 1.05 9.925c.27 2.613 1.832 6.532 2.869 5.751 1.037-.78 4.7-8.08 4.7-8.08l1.832-4.957-10.451-2.64ZM100.878 18.831s-2.29-.202-2.29 3.543c0 3.744 1.657 3.946 1.657 3.946l.633-7.489ZM116.193 21.956a2.035 2.035 0 0 1 1.872 2.492c-.418 2.29-4.364 5.387-4.364 5.387l2.492-7.879Z" fill="#fff" stroke="#2A3F33" stroke-linecap="round" stroke-linejoin="round"/><path d="M108.636 11.29s-4.175-1.051-6.532 3.918c-2.356 4.97-1.831 10.977-1.346 14.37.484 3.395 3.663 4.957 6.801 4.957 3.138 0 7.825-6.519 8.875-11.488 1.051-4.97.297-11.758-7.798-11.758ZM53.78 52.502l1.037 7.838 4.7.525-.78-8.888-4.957.525ZM58.832 52.38l1.899-.256.377 4.175-1.899.256-.377-4.175ZM127.181 85.418l-2.855 4.471.741 4.485 2.491-.242 4.243-1.495.606-7.22h-5.226Z" fill="#fff" stroke="#2A3F33" stroke-linecap="round" stroke-linejoin="round"/><path d="m89.04 78.105-1.845 8.053-20.444 26.909 13.71 38.64 3.489-.754-2.99-36.889 16.7-17.697 1.993 1.253.054 19.744 19.138 32.35 3.987-1.01-8.97-31.152.498-33.145-1.023-5.252-24.297-1.05Z" fill="#2A3F33" stroke="#2A3F33" stroke-linecap="round" stroke-linejoin="round"/><path d="m80.462 151.708-2.99 4.229s-4.74 2.249-5.48 3.488c-.742 1.239 4.04.996 4.04.996l5.48-.498 5.738-3.731-3.246-5.239-3.542.755Z" fill="#fff" stroke="#2A3F33" stroke-linecap="round" stroke-linejoin="round"/><path d="M51.29 6.697s-2.505 5.71-12.849 9.63c-10.343 3.92-25.32 6.06-29.239 14.262-3.92 8.203-3.92 7.502-4.633 12.122A12.512 12.512 0 0 1 1 49.835s3.569.364 5.387-2.128c1.818-2.491 2.505-9.63 5.387-10.707 2.883-1.077 8.122-2.815 8.122-2.815s-4.984 4.283-5.388 6.425c-.404 2.141-.713 7.138-1.427 10.343a8.511 8.511 0 0 1-2.438 4.606s4.633 0 6.06-3.205c1.428-3.206 0-7.488 4.634-10.707 4.633-3.22 9.63-1.778 17.508-1.428 7.879.35 15.34-4.27 15.34-4.27L51.29 6.698Z" fill="#2A3F33" stroke="#2A3F33" stroke-linecap="round" stroke-linejoin="round"/><path d="m118.845 149.714-3.434 11.407 8.525-.337-1.104-12.08-3.987 1.01Z" fill="#fff" stroke="#2A3F33" stroke-linecap="round" stroke-linejoin="round"/><path d="M105.78 21.297c-.148.673-.619 1.144-1.077 1.05-.458-.094-.7-.727-.552-1.347.148-.62.619-1.144 1.077-1.05.458.094.687.673.552 1.347ZM112.018 22.751c-.148.673-.62 1.145-1.078 1.05-.458-.094-.7-.727-.552-1.346.148-.62.62-1.145 1.078-1.05.458.094.686.66.552 1.346Z" fill="#2A3F33"/><path d="m107.868 22.158-1.656 4.996h2.707M104.139 28.61s1.454 2.491 5.198 1.037M103.923 17.795a2.694 2.694 0 0 1 3.326.62M110.374 19.25a2.95 2.95 0 0 1 4.148 1.467" stroke="#2A3F33" stroke-linecap="round" stroke-linejoin="round"/><path d="m99.978 17.175 14.963-1.845s-.62 2.492.215 3.111c.835.62 1.037 3.543 1.037 3.543l-.619 3.326 3.326-5.818s1.037-4.58.202-6.034a3.651 3.651 0 0 0-2.491-1.67 8.515 8.515 0 0 0-8.324-3.73c-5.818.62-8.31 3.528-8.31 5.818v3.3Z" fill="#2A3F33" stroke="#2A3F33" stroke-linecap="round" stroke-linejoin="round"/></svg>