<svg xmlns="http://www.w3.org/2000/svg" width="168" height="158" fill="none"><path fill="#9E9E9E" stroke="#263238" stroke-miterlimit="10" d="m119.794 143.509 3.321-50.436 2.444-23.98-6.704-7.483-3.362-2.444s-4.735 4.125-8.092 5.038c-3.357.913-6.585 1.836-6.585 1.836S89.362 87.576 88.439 97.348c-.923 9.773-2.445 45.976-2.445 45.976l1.274.185h32.526Z"/><path stroke="#263238" stroke-miterlimit="10" d="M104.048 101.928s-.572-.294.573-3.244"/><path fill="#263238" stroke="#263238" stroke-miterlimit="10" d="M102.702 65.524c.57 4.075.885 8.18.944 12.295 0 0 3.44-1.377 6.188-6.189a55.5 55.5 0 0 0 3.909-8.076l-11.041 1.97Z"/><path fill="#fff" stroke="#263238" stroke-miterlimit="10" d="m119.794 143.509 2.986-45.346c-2.93 1.496-8.711 3.966-15.09 4.074-7.643.129-17.106-5.807-17.106-5.807l-2.13.836v.082c-.918 9.799-2.444 45.975-2.444 45.975l1.274.186h32.51Z"/><path fill="#fff" d="M114.821 118.126c0 11.681.403 22.918.516 25.373h22.511c.309-3.641 2.248-26.301 3.243-34.423 1.088-8.876 8.226-22.088 8.226-26.817 0-4.73 1.449-3.981-5.07-7.421-6.518-3.44-20.896-10.866-22.887-11.774-1.99-.907-4.166-3.094-4.166-3.094s.722 4.528.515 16.838c-.206 12.31-2.888 28.111-2.888 41.318Z"/><g fill="#000" opacity=".2"><path d="M117.193 60.016c.269 2.143.424 4.298.464 6.457v-6.018a16.208 16.208 0 0 1-.464-.439ZM146.795 89.489v1.547c.175-.47.35-.923.515-1.372v-.185h.067c.067-.17.129-.346.191-.516h-.258v-6.42h1.996v-.516h-1.996v-5.498c-.16-.098-.33-.19-.515-.294v5.792h-5.415V75.58h4.187l-.969-.515h-3.218v-1.702l-.516-.273v1.96h-5.415v-4.776l-.516-.269v5.044h-5.415v-6.43h2.698l-1.001-.516h-1.697v-.872l-.515-.268v1.14h-5.415v-3.894c-.181-.093-.351-.18-.516-.258v4.152h-5.363v.515h5.363v6.447h-5.317v.515h5.317v6.447h-5.415v-2.45a182.95 182.95 0 0 1-.516 7.844v1.547h-.134l-.046.516h.18v6.467h-.773l-.052.515h.851v6.447h-1.464l-.047.515h1.511v6.447h-2.011l-.031.515h2.063v6.447h-2.285v.515h2.29v6.447h-2.274v.516h2.269v6.446h-2.166v.516h2.156v12.248h.515v-12.264h5.379v12.248h.516v-12.248h5.415v12.248h.515v-12.248h5.415v12.248h.516v-12.248h3.471c0-.17 0-.34.046-.516h-3.517v-6.43h4.126c0-.171.036-.341.051-.516h-4.177v-6.447h4.765c0-.175.031-.34.052-.515h-4.817v-6.447h5.415v.686l.227-1.975c.072-.577.17-1.176.289-1.789v-3.884h.964l.155-.515h-1.119v-6.447h3.352c.067-.17.129-.345.196-.515h-3.548v-6.447l5.415-.015Zm-5.415-6.947h5.415v6.447h-5.415v-6.447Zm-18.308 48.203h-5.415v-6.43h5.415v6.43Zm0-6.962h-5.415v-6.446h5.415v6.446Zm0-6.962h-5.415v-6.431h5.415v6.431Zm0-6.962h-5.415v-6.446h5.415v6.446Zm0-6.962h-5.415v-6.43h5.415v6.43Zm0-6.962h-5.415V89.49h5.415v6.446Zm0-6.962h-5.415v-6.43h5.415v6.43Zm5.931 41.772h-5.415v-6.43h5.415v6.43Zm0-6.962h-5.415v-6.446h5.415v6.446Zm0-6.962h-5.415v-6.431h5.415v6.431Zm0-6.962h-5.415v-6.446h5.415v6.446Zm0-6.962h-5.415v-6.43h5.415v6.43Zm0-6.962h-5.415V89.49h5.415v6.446Zm0-6.962h-5.415v-6.43h5.415v6.43Zm0-6.962h-5.415v-6.446h5.415v6.446Zm0-6.962h-5.415v-6.43h5.415v6.43Zm5.93 55.696h-5.415v-6.43h5.415v6.43Zm0-6.962h-5.415v-6.446h5.415v6.446Zm0-6.962h-5.415v-6.431h5.415v6.431Zm0-6.962h-5.415v-6.446h5.415v6.446Zm0-6.962h-5.415v-6.43h5.415v6.43Zm0-6.962h-5.415V89.49h5.415v6.446Zm0-6.962h-5.415v-6.43h5.415v6.43Zm0-6.962h-5.415v-6.446h5.415v6.446Zm5.931 27.848h-5.415v-6.446h5.415v6.446Zm0-6.962h-5.415v-6.43h5.415v6.43Zm0-6.962h-5.415V89.49h5.415v6.446Zm0-6.962h-5.415v-6.43h5.415v6.43Zm0-6.962h-5.415v-6.446h5.415v6.446Z" opacity=".2"/></g><path stroke="#263238" stroke-miterlimit="10" d="M114.821 118.126c0 11.681.403 22.918.516 25.373h22.511c.309-3.641 2.248-26.301 3.243-34.423 1.088-8.876 8.226-22.088 8.226-26.817 0-4.73 1.449-3.981-5.07-7.421-6.518-3.44-20.896-10.866-22.887-11.774-1.99-.907-4.166-3.094-4.166-3.094s.722 4.528.515 16.838c-.206 12.31-2.888 28.111-2.888 41.318Z"/><path fill="#263238" stroke="#263238" stroke-miterlimit="10" d="M117.193 60.016s.722 4.528.516 16.838c-.041 3.094-.253 6.436-.516 9.881.619-.85 2.615-3.569 3.095-3.723.541-.18 3.439 2.537 5.791 2.898 2.352.361 3.259.361.727-2.357s-3.61-10.68-4.528-16.657a23.212 23.212 0 0 0-.84-3.775h-.062c-2.012-.928-4.183-3.105-4.183-3.105Z"/><path stroke="#263238" stroke-miterlimit="10" d="M132.052 116.022a100.256 100.256 0 0 0 2.976-1.413l.613 4.734s-9.014 3.971-14.053 4.275c-5.038.305-5.497.459-5.497.459l.149-4.579"/><path stroke="#263238" stroke-miterlimit="10" d="M127.539 117.873c.923-.309 2.006-.747 3.063-1.206M117.916 119.039a60.51 60.51 0 0 0 7.87-.717M135.641 119.343l.304 3.667"/><path fill="#fff" d="M66.546 143.509h25.332c.057-1.985.789-27.219 1.284-40.096.516-13.408 9.613-33.748 9.613-33.748s1.217-2.867-.072-4.156c-1.29-1.29-4.384-.774-6.705 1.031-2.32 1.805-23.722 11.088-25.011 12.377-1.29 1.29-1.032 5.673-1.547 10.83-.516 5.157-9.025 40.741-9.025 40.741s-2.321.515-3.095 1.031c-.773.516-.773 2.063-.773 2.063s1.031.258 4.126 1.805c2.846 1.423 5.471 7.199 5.873 8.122Z"/><path fill="#000" d="M99.35 75.565V78.2c.175-.474.346-.933.516-1.377v-1.258h.484l.202-.516h-.686v-6.43h3.249c.036-.16.077-.336.103-.516h-3.352v-3.239c-.17.026-.34.052-.516.093v3.146h-5.415v-.351l-.516.263v.088h-.175l-1.031.515h1.206v6.447h-5.415V70.63l-.515.242v4.177h-5.415v-1.645l-.516.243v1.402h-2.996l-1.093.516h4.09v6.462h-5.416v-5.828l-.516.248v5.58h-5.414v-1.3a45.587 45.587 0 0 0-.516 5.673v2.578h-.186l-.046.516h.232v6.457H68.31l-.109.516h1.496v6.446h-2.893c-.036.17-.078.345-.114.516h3.007v6.446h-4.46c-.042.175-.078.345-.12.516h4.58v6.446h-5.415v-2.836l-.516 2.227v.583h-.134l-.118.516h.252v6.472h-1.763l-.124.516h1.887v6.446h-4.378c-.526.141-1.042.313-1.547.516v2.805c.154.062.325.134.515.222v-3.027h5.41v7.22c.18.257.351.515.516.778v-7.993h5.415v12.248h.516v-12.269h5.415v12.248h.515v-12.248h5.415v12.248h.516v-12.248h5.415v12.248h.515v-12.248h4.234v-.515h-4.234v-6.431h4.451v-.516h-4.45v-6.446h4.672v-.516h-4.673v-6.446h4.905v-.516h-4.905v-6.446h5.157c0-.171 0-.341.026-.516h-5.183v-6.447h5.415v3.812c.135-1.099.305-2.228.516-3.373v-.439h.083c.03-.17.067-.34.098-.515h-.18v-6.447h1.727c.046-.17.098-.34.144-.515h-1.872v-6.447h3.868c.062-.17.118-.345.175-.515h-4.043V75.58l5.415-.015Zm-5.415-6.947h5.415v6.447h-5.415v-6.447Zm-24.238 62.143h-5.415v-6.446h5.415v6.446Zm0-6.962h-5.415v-6.446h5.415v6.446Zm5.93 6.962h-5.414v-6.446h5.415v6.446Zm0-6.962h-5.414v-6.446h5.415v6.446Zm0-6.962h-5.414v-6.446h5.415v6.446Zm0-6.962h-5.414v-6.446h5.415v6.446Zm0-6.962h-5.414v-6.447h5.415v6.447Zm0-6.962h-5.414v-6.447h5.415v6.447Zm0-6.962h-5.414v-6.447h5.415v6.447Zm5.931 41.772h-5.415v-6.446h5.415v6.446Zm0-6.962h-5.415v-6.446h5.415v6.446Zm0-6.962h-5.415v-6.446h5.415v6.446Zm0-6.962h-5.415v-6.446h5.415v6.446Zm0-6.962h-5.415v-6.447h5.415v6.447Zm0-6.962h-5.415v-6.447h5.415v6.447Zm0-6.962h-5.415v-6.447h5.415v6.447Zm5.93 41.772h-5.414v-6.446h5.415v6.446Zm0-6.962h-5.414v-6.446h5.415v6.446Zm0-6.962h-5.414v-6.446h5.415v6.446Zm0-6.962h-5.414v-6.446h5.415v6.446Zm0-6.962h-5.414v-6.447h5.415v6.447Zm0-6.962h-5.414v-6.447h5.415v6.447Zm0-6.962h-5.414v-6.447h5.415v6.447Zm0-6.962h-5.414V75.58h5.415v6.447ZM93.42 95.95h-5.415v-6.447h5.415v6.447Zm0-6.962h-5.415v-6.447h5.415v6.447Zm0-6.962h-5.415V75.58h5.415v6.447Z" opacity=".2"/><path stroke="#263238" stroke-miterlimit="10" d="M66.546 143.509h25.332c.057-1.985.789-27.219 1.284-40.096.516-13.408 9.613-33.748 9.613-33.748s1.217-2.867-.072-4.156c-1.29-1.29-4.384-.774-6.705 1.031-2.32 1.805-23.722 11.088-25.011 12.377-1.29 1.29-1.032 5.673-1.547 10.83-.516 5.157-9.025 40.741-9.025 40.741s-2.321.515-3.095 1.031c-.773.516-.773 2.063-.773 2.063s1.031.258 4.126 1.805c2.846 1.423 5.471 7.199 5.873 8.122Z"/><path fill="#263238" stroke="#263238" stroke-miterlimit="10" d="M56.547 133.597s1.031.258 4.126 1.805c3.094 1.547 5.93 8.252 5.93 8.252H71.6c.315-.939 1.083-4.353-2.418-8.51-4.126-4.899-8.767-4.641-8.767-4.641s-2.321.516-3.095 1.031c-.773.516-.773 2.063-.773 2.063ZM99.588 64.895c-1.109 2.934-3.734 9.571-5.91 12.733-2.836 4.125-7.993 7.477-6.188 9.025 1.805 1.547 6.962-3.353 6.962-3.353s1.289 3.61 1.547 4.642c.014.047.037.09.067.129a162.03 162.03 0 0 1 6.704-18.406s1.217-2.867-.072-4.156c-.665-.67-1.8-.846-3.11-.614Z"/><path stroke="#263238" stroke-miterlimit="10" d="M80.754 89.788c.148-.953.244-1.914.289-2.878M76.66 144.154s.774-16.503.774-26.043c0-6.875 1.872-18.437 2.924-25.517"/><path stroke="#263238" stroke-miterlimit="10" d="M77.948 114.516s4.126 1.289 6.189 1.547l6.188.774-.469 5.843s-.304-.17-4.946-1.718c-4.641-1.547-7.477-2.836-7.477-2.836"/><path stroke="#263238" stroke-miterlimit="10" d="M89.857 122.664s-.305 11.449-.305 12.996c0 1.547-4.64.516-4.64.516"/><path fill="#9E9E9E" stroke="#263238" stroke-miterlimit="10" d="M93.56 59.45s4.862 6.992 9.215 10.215 8.066-1.289 10.969-6.126c2.904-4.838 4.837-8.386 6.287-12.578 1.449-4.193 0-11.124-5.802-16.606-5.802-5.482-19.355-13.548-22.738-9.355-3.383 4.193-6.611 13.408-4.357 21.283a41.6 41.6 0 0 0 6.425 13.166Z"/><path stroke="#263238" stroke-linecap="round" stroke-miterlimit="10" stroke-width="2" d="M91.513 44.406a9.797 9.797 0 0 1 5.626 0"/><path fill="#263238" d="M95.674 48.722c.154.836-.041 1.573-.439 1.646-.397.072-.835-.547-.99-1.388-.154-.84.042-1.572.439-1.645.397-.072.835.547.99 1.387ZM110.02 48.944c.15.836-.046 1.547-.438 1.645-.392.098-.835-.546-.99-1.387-.155-.84.041-1.573.438-1.645.397-.072.836.547.99 1.387Z"/><path stroke="#263238" stroke-miterlimit="10" d="M99.393 60.316c1.863.642 3.833.915 5.801.804 3.388-.16 6.292-2.578 6.292-2.578"/><path fill="#263238" stroke="#263238" stroke-miterlimit="10" d="M91.992 28.564s7.163 16.337 8.06 16.786c.898.448 2.687-4.925 2.687-4.925s2.46 4.47 5.379 5.817c2.919 1.346 3.806-.892 3.806-.892a50.049 50.049 0 0 1 4.254 2.686l1.119.893 1.12 4.027s-3.358 10.97-2.239 12.316c1.119 1.345 7.385-.45 7.385-.45s-1.547 2.239.449 2.239 5.595.449 10.742-6.493c5.147-6.941 5.595-18.127 5.595-18.127s2.46 2.682 2.687-.675c.227-3.358-2.908-8.953-2.908-8.953s4.92 4.925 4.476-.222c-.443-5.147-3.357-10.969-4.476-12.31-1.119-1.34-7.839-5.157-7.839-5.157s2.687-.449.676-3.584c-2.012-3.135-9.402-4.028-12.089-4.028-2.686 0-8.282.898-8.282.898s3.584-6.942-.222-7.39c-3.805-.449-10.52 6.941-10.52 6.941s-6.704-5.374-8.73-4.255c-2.028 1.12-.671 2.687-.671 2.687s-8.726.67-11.191 4.477c-2.465 3.806.449 6.044.449 6.044S66.04 27.656 68.5 31.684c2.46 4.027 6.942.226 6.942.226s-6.271 16.116-5.374 17.235c.897 1.12 5.157-.448 5.157-.448s-.222 12.98 3.136 14.326c3.357 1.346 4.027-1.12 4.027-1.12s1.79 1.79 5.823 2.012c4.032.222 5.368-4.476 5.368-4.476s-4.476-10.52-4.25-19.246c.228-8.726 2.662-11.63 2.662-11.63Z"/><path fill="#9E9E9E" d="M101.006 47.413s-1.614 8.385-.325 10.159c1.289 1.774 5.807 0 6.127-.964"/><path stroke="#263238" stroke-miterlimit="10" d="M101.006 47.413s-1.614 8.385-.325 10.159c1.289 1.774 5.807 0 6.127-.964"/><path stroke="#263238" stroke-miterlimit="10" d="M94.312 52.575c3.518 0 6.369-2.095 6.369-4.678 0-2.583-2.851-4.677-6.369-4.677-3.517 0-6.369 2.094-6.369 4.677 0 2.584 2.852 4.678 6.37 4.678ZM109.628 52.255c3.517 0 6.369-2.094 6.369-4.677 0-2.584-2.852-4.678-6.369-4.678-3.518 0-6.369 2.094-6.369 4.678 0 2.583 2.851 4.677 6.369 4.677ZM101.006 47.413s1.289-.965 2.253.165"/><path fill="#9E9E9E" stroke="#263238" stroke-miterlimit="10" d="M47.94 136.645s8.096-2.284 10.587-2.697c2.49-.413 7.478 4.151 8.308 6.642.83 2.491-.232 3.048-.232 3.048l-16.59-.552-2.073-6.441Z"/><path fill="#9E9E9E" stroke="#263238" stroke-miterlimit="10" d="M50.874 135.841s6.111 2.289 7.638 3.207c1.526.918 1.067 2.749.154 3.662a8.634 8.634 0 0 1-3.821 1.836 37.638 37.638 0 0 1-4.275 0c-1.831-.155-3.512.154-5.039.154-1.526 0-6.11-.459-6.11-.459l-1.378-.917s-2.578.763-4.58 1.547c-2 .784-1.376-.918.15-2.141 1.527-1.222 5.348-4.275 5.962-4.579.614-.304 8.4-2.579 8.4-2.579l2.9.269Z"/><path fill="#9E9E9E" d="M53.165 136.449s-3.976-1.831-5.044-1.831c-1.067 0-8.705 2.579-9.772 3.358-1.068.778-2.14 8.096-1.377 8.555.763.459 1.377-.918 1.547-1.831.17-.912 2.295-5.806 2.295-5.806l-1.547 7.792s.613 1.217 1.222.149c.608-1.067 4.43-8.4 4.734-8.859.4-.426.865-.786 1.377-1.068 0 0-.763 3.362-1.377 6.57s-.15 4.126.768 4.275c.918.15 1.372-1.985 1.831-3.053.46-1.067 2.445-7.183 2.445-7.183"/><path stroke="#263238" stroke-miterlimit="10" d="M53.165 136.449s-3.976-1.831-5.044-1.831c-1.067 0-8.705 2.579-9.772 3.358-1.068.778-2.14 8.096-1.377 8.555.763.459 1.377-.918 1.547-1.831.17-.912 2.295-5.806 2.295-5.806l-1.547 7.792s.613 1.217 1.222.149c.608-1.067 4.43-8.4 4.734-8.859.4-.426.865-.786 1.377-1.068 0 0-.763 3.362-1.377 6.57s-.15 4.126.768 4.275c.918.15 1.372-1.985 1.831-3.053.46-1.067 2.445-7.183 2.445-7.183"/><path fill="#9E9E9E" stroke="#263238" stroke-miterlimit="10" d="M57.578 139.507s-4.579 4.735-5.193 5.802c-.613 1.068-.608 1.222 1.073 1.222s6.874-3.362 7.328-3.821c.454-.459.31-1.831-.763-2.749a2.713 2.713 0 0 0-2.445-.454ZM86.18 138.981s-6.112 1.975-7.613 3.095c-1.5 1.119-3.666 2.351-3.197 2.728.47.376 1.975 0 2.444-.377.47-.376 2.63-.753 2.63-.753s2.538-1.506 4.513-2.723c1.975-1.217 3.476-2.537 1.222-1.97Z"/><path fill="#9E9E9E" stroke="#263238" stroke-miterlimit="10" d="M119.911 128.636s-17.018 3.095-23.176 5.255c-6.157 2.161-8.607 3.667-11.686 5.843-3.079 2.177-9.319 6.287-8.39 7.009.928.722 4.161-1.81 4.708-2.352.547-.541 4.523-2.171 4.523-2.171l2.66-1.362s-4.006 4.936-5.45 6.189c-1.444 1.253-.47 2.037.619 1.676 1.088-.361 3.14-2.522 3.14-2.522l6.617-4.352s-2.718 3.806-3.987 4.889c-1.268 1.083 1.45 1.995 1.996 1.088.547-.908 3.26-3.26 3.26-3.26s4.522-2.351 5.61-3.259c1.088-.907 3.801-3.44 3.801-3.44l20.278 1.63s1.268-.722.546-4.889-5.069-5.972-5.069-5.972Z"/><path fill="#fff" d="m133.67 96.59 9.959 24.63-16.116 5.611 4.528 13.218s11.572.031 20.628-.516c9.056-.547 15.409-6.008 13.96-12.521-1.449-6.514-6.879-15.936-11.227-27.163-4.347-11.227-3.001-17.92-4.992-21.36-1.991-3.44-7.607-4.348-7.607-4.348l-3.094-.515"/><path fill="#263238" d="M165.102 133.86v-2.578h1.346c.057-.17.104-.34.145-.516h-1.491v-6.451h.774c-.057-.165-.119-.341-.175-.516h-.599v-1.573a66.169 66.169 0 0 0-.515-1.305v2.878h-5.415v-6.446h3.888c-.077-.171-.149-.341-.227-.516h-3.661v-6.446h.722c-.083-.171-.16-.341-.237-.516h-.485v-1.078c-.17-.382-.346-.763-.516-1.15v2.228h-5.415v-6.446h3.61c-.072-.171-.144-.341-.211-.516h-3.399v-6.446h.965c-.057-.17-.109-.346-.16-.516h-.805v-2.94a60.806 60.806 0 0 1-.515-2.34v5.28h-5.415v-6.446h5.198l-.093-.516h-5.105v-6.447h4.234l-.078-.515h-4.156v-6.323a14.602 14.602 0 0 0-1.393-.655h-4.538v-1.155l-.516-.093v1.248h-1.521l-.139.516h1.66v6.462h-3.352l-.134.516h3.491v6.446h-5.193l-.139.516h5.327v6.446h-5.415v-6.116l-.515 1.954v4.126h-1.094l-.134.515h1.228v3.265l.515 1.274v-4.502h5.415v6.446h-4.641l.206.516h4.435v6.446h-1.805l.212.516h1.619v4.007l.516 1.273v-5.28h5.389v6.446h-4.946l.212.516h4.734v6.446h-5.415v-1.784l-.516.18v1.604h-4.61l-1.485.516h.165v6.446h-5.415v-4.641l-.516.18v4.435h-.149l.665 1.939v-1.423h5.415v8.767h.515v-8.767h5.415v8.7h.516v-8.69h5.415v8.525h.516v-8.525h5.415v8.252l.515-.042v-8.21h5.415v7.076l.516-.196v-6.88h5.415v3.239c.18-.212.356-.423.515-.64Zm-24.238-3.094h-5.415v-6.451h5.415v6.451Zm5.931 0h-5.415v-6.451h5.415v6.451Zm0-20.886h-5.415v-6.446h5.415v6.446Zm0-6.962h-5.415v-6.451h5.415v6.451Zm0-6.962h-5.415V89.51h5.415v6.446Zm0-6.962h-5.415v-6.451h5.415v6.451Zm0-6.962h-5.415v-6.446h5.415v6.446Zm5.931 48.734h-5.415v-6.451h5.415v6.451Zm0-6.962h-5.415v-6.446h5.415v6.446Zm0-6.962h-5.415v-6.451h5.415v6.451Zm0-6.962h-5.415v-6.446h5.415v6.446Zm0-6.962h-5.415v-6.451h5.415v6.451Zm5.93 27.848h-5.415v-6.451h5.415v6.451Zm0-6.962h-5.415v-6.446h5.415v6.446Zm0-6.962h-5.415v-6.451h5.415v6.451Zm.516 13.924v-6.451h5.415v6.446l-5.415.005Z" opacity=".2"/><path stroke="#263238" stroke-miterlimit="10" d="m133.67 96.59 9.959 24.63-16.116 5.611 4.528 13.218s11.572.031 20.628-.516c9.056-.547 15.409-6.008 13.96-12.521-1.449-6.514-6.879-15.936-11.227-27.163-4.347-11.227-3.001-17.92-4.992-21.36-1.991-3.44-7.607-4.348-7.607-4.348l-3.094-.515"/><path stroke="#263238" stroke-miterlimit="10" d="M153.324 118.714a72.144 72.144 0 0 0-9.695 2.501s6.879-4.528 10.68-4.889M157.935 118.497a9.968 9.968 0 0 0-2.156-.072"/><path fill="#263238" stroke="#263238" stroke-miterlimit="10" d="M132.222 124.83s3.661 3.502 4.744 6.215c1.083 2.712.686 10.082-.036 10.804-.722.722-14.197.634-16.415-2.135-.577-.722 3.378-2.388 1.387-6.375-1.99-3.986-2.898-4.342-2.898-4.342s-1.629-.907 1.449-2.898c3.079-1.991 10.139-3.435 11.769-1.269Z"/><path fill="#263238" stroke="#263238" stroke-linejoin="round" d="m87.293 154.509 16.472-4.352v2.227L87.293 157v-2.491Z"/><path fill="#fff" stroke="#263238" stroke-linejoin="round" d="M103.765 150.157H17.647L1 154.509h86.293l16.472-4.352Z"/><path fill="#fff" stroke="#263238" stroke-linejoin="round" d="M87.293 104.743H1V157h86.293v-52.257Z"/><path fill="#263238" stroke="#263238" stroke-linejoin="round" d="M87.294 112.304c-18.772.892-29.952 18.194-46.563 29.787-15.141 10.572-33.84 12.377-39.71 12.66V157h86.273v-44.696Z"/><path fill="#fff" stroke="#263238" stroke-miterlimit="10" d="M87.293 154.509H1V157h86.293v-2.491Z"/></svg>