<svg width="0" height="0" class="hidden">
  <symbol fill="none" xmlns="http://www.w3.org/2000/svg" viewBox="0 0 120 120" id="bulb">
    <g clip-path="url(#clip0_580_309)">
      <path d="M70.0934 75.0555C74.7439 73.8629 78.7836 71.2399 81.776 67.4701C85.4449 62.848 87.0715 57.0761 86.356 51.2177C85.6405 45.3604 82.6694 40.1456 77.9937 36.543C73.4636 33.0505 67.8161 31.4979 62.0916 32.1712C56.3674 32.8445 51.2339 35.665 47.6369 40.1129C44.5533 43.9261 42.8715 48.5256 42.7732 53.4141C42.6137 61.3502 39.8789 69.0556 35.0725 75.1108L29.8133 81.7364C27.4804 84.6753 27.9735 88.9642 30.9124 91.297L35.8701 95.2322C38.809 97.5651 43.0979 97.0718 45.4307 94.133L50.6895 87.5079C55.5493 81.3859 62.2445 77.0681 70.0934 75.0555V75.0555ZM45.5771 53.4706C45.6628 49.2103 47.1291 45.2011 49.8175 41.8765C56.2762 33.8897 68.1478 32.4935 76.2812 38.7641C80.3592 41.9127 82.9484 46.4517 83.5719 51.5578C84.1958 56.6652 82.7777 61.6971 79.5793 65.7266C76.9706 69.0131 73.4495 71.2996 69.3966 72.339C61.1265 74.4598 54.0166 78.949 48.8016 85.3359L37.5936 76.4393C42.5779 69.9715 45.409 61.8367 45.5771 53.4706V53.4706ZM32.6007 82.7357L33.3066 81.8465L43.5102 92.0419L43.2342 92.3895C43.0889 92.5726 42.9283 92.7359 42.7597 92.8863L32.6007 82.7357ZM35.0616 79.6355L35.8531 78.6384L47.0774 87.5479L45.2652 89.8309L35.0616 79.6355V79.6355ZM32.6559 89.1005C31.4761 88.164 30.9681 86.6913 31.2006 85.3011L39.796 93.8896C39.0252 93.8319 38.2635 93.5514 37.6138 93.0357L32.6561 89.1004L32.6559 89.1005Z" fill="#0E291A"></path>
      <path d="M52.4713 46.9017C52.8418 46.2589 53.2697 45.636 53.7431 45.0508C54.2301 44.4486 54.1367 43.5658 53.5346 43.0787C52.9363 42.5952 52.0496 42.6851 51.5625 43.2872C50.997 43.9865 50.4852 44.7313 50.0414 45.5012C49.69 46.1108 49.8479 46.8742 50.383 47.299C50.4369 47.3417 50.4947 47.3811 50.5561 47.4165C51.2271 47.803 52.0845 47.5727 52.4713 46.9017Z" fill="#0E291A"></path>
      <path d="M45.6924 68.7152C45.806 68.8054 45.9359 68.8793 46.0795 68.9324C46.8061 69.2003 47.6124 68.8284 47.8802 68.1019C49.6012 63.4341 50.5246 58.5454 50.6244 53.5719C50.641 52.7498 50.7285 51.9296 50.8848 51.1339C51.034 50.3739 50.5388 49.6371 49.7788 49.4878C49.0189 49.3387 48.2819 49.8339 48.1327 50.5939C47.9454 51.5485 47.8403 52.5314 47.8205 53.5157C47.7269 58.1764 46.8617 62.7575 45.249 67.1317C45.034 67.7147 45.2308 68.3488 45.6924 68.7152Z" fill="#0E291A"></path>
      <path d="M73.1985 66.7919C72.832 66.1097 71.9816 65.8539 71.2996 66.2205C70.3102 66.7524 69.2481 67.1657 68.1429 67.449C67.3927 67.6413 66.9406 68.4055 67.1329 69.1556C67.2118 69.4637 67.3873 69.7214 67.6185 69.9049C67.9505 70.1684 68.3974 70.279 68.8397 70.1655C70.1641 69.8259 71.4384 69.3296 72.6272 68.6909C73.3094 68.3243 73.5653 67.4741 73.1985 66.7919V66.7919Z" fill="#0E291A"></path>
      <path d="M73.3606 42.8885C79.4162 47.6953 80.4321 56.5326 75.6253 62.5883C75.352 62.9326 75.0608 63.2669 74.7598 63.582C74.225 64.1422 74.2453 65.0296 74.8053 65.5646C74.837 65.5948 74.8695 65.6232 74.9032 65.65C75.4645 66.0955 76.2832 66.0476 76.7879 65.5191C77.1476 65.1423 77.4956 64.7429 77.8219 64.3319C83.5901 57.065 82.371 46.4601 75.1042 40.6919C74.4976 40.2104 73.6155 40.3118 73.1341 40.9184C72.6526 41.5249 72.754 42.407 73.3606 42.8885V42.8885Z" fill="#0E291A"></path>
      <path d="M79.7465 34.8433C80.3531 35.3248 81.2351 35.2234 81.7166 34.6168L86.5987 28.4663C87.0802 27.8597 86.9788 26.9776 86.3722 26.4961C85.7657 26.0147 84.8836 26.1161 84.4021 26.7226L79.52 32.8732C79.0385 33.4797 79.1399 34.3618 79.7465 34.8433Z" fill="#0E291A"></path>
      <path d="M66.9128 28.1936C66.8366 28.7077 67.0493 29.1976 67.4288 29.4989C67.6151 29.6467 67.8417 29.7493 68.0939 29.7867C68.8599 29.9003 69.5732 29.3716 69.6869 28.6056L70.8396 20.8411C70.9533 20.0748 70.4246 19.3617 69.6586 19.248C68.8925 19.1344 68.1792 19.6631 68.0655 20.4291L66.9128 28.1936Z" fill="#0E291A"></path>
      <path d="M78.2132 84.9761L75.3285 77.6757C75.0439 76.9552 74.2292 76.6022 73.509 76.887C72.7887 77.1715 72.4355 77.9861 72.7202 78.7065L75.605 86.0068C75.6986 86.2439 75.8497 86.4412 76.0361 86.5892C76.4157 86.8905 76.9414 86.9864 77.4244 86.7955C78.1447 86.511 78.4978 85.6963 78.2132 84.9761V84.9761Z" fill="#0E291A"></path>
      <path d="M50.7691 23.1485L53.6538 30.4489C53.7474 30.686 53.8985 30.8833 54.085 31.0313C54.4645 31.3326 54.9902 31.4285 55.4733 31.2376C56.1935 30.9531 56.5467 30.1385 56.262 29.4181L53.3773 22.1178C53.0929 21.3974 52.2782 21.0443 51.5578 21.329C50.8376 21.6136 50.4845 22.428 50.7691 23.1485V23.1485Z" fill="#0E291A"></path>
      <path d="M91.8309 73.9733L85.6803 69.0912C85.0738 68.6097 84.1917 68.7111 83.7102 69.3177C83.2288 69.9242 83.3302 70.8063 83.9367 71.2878L90.0872 76.1699C90.6938 76.6514 91.5759 76.55 92.0574 75.9434C92.5388 75.3368 92.4376 74.4549 91.8309 73.9733Z" fill="#0E291A"></path>
      <path d="M45.2722 38.8067C45.7537 38.2001 45.6523 37.318 45.0457 36.8365L38.8952 31.9544C38.2886 31.4729 37.4065 31.5744 36.9251 32.1809C36.4436 32.7875 36.545 33.6696 37.1516 34.151L43.3021 39.0332C43.9088 39.5148 44.7908 39.4132 45.2722 38.8067Z" fill="#0E291A"></path>
      <path d="M89.2828 58.9702C89.4691 59.118 89.6956 59.2205 89.9479 59.2579L97.7124 60.4106C98.4784 60.5243 99.1917 59.9956 99.3054 59.2295C99.4191 58.4635 98.8902 57.7501 98.1243 57.6365L90.3598 56.4838C89.5938 56.3701 88.8804 56.8989 88.7668 57.6649C88.6905 58.1787 88.9034 58.669 89.2828 58.9702Z" fill="#0E291A"></path>
      <path d="M39.0344 48.8667L31.2699 47.7139C30.5039 47.6002 29.7906 48.129 29.6769 48.895C29.6007 49.4088 29.8134 49.8989 30.193 50.2002C30.3792 50.3481 30.6058 50.4506 30.858 50.488L38.6225 51.6408C39.3885 51.7544 40.1019 51.2257 40.2155 50.4597C40.3295 49.6936 39.8002 48.9801 39.0344 48.8667V48.8667Z" fill="#0E291A"></path>
      <path d="M87.316 45.0446C87.4097 45.2818 87.5608 45.479 87.7472 45.627C88.1267 45.9283 88.6524 46.0242 89.1355 45.8334L96.4358 42.9486C97.156 42.6641 97.5091 41.8494 97.2246 41.1292C96.9402 40.409 96.1254 40.0557 95.4051 40.3404L88.1047 43.2251C87.3845 43.5097 87.0314 44.3244 87.316 45.0446V45.0446Z" fill="#0E291A"></path>
    </g>
    <defs>
      <clipPath id="clip0_580_309">
        <rect width="85.2353" height="85.2353" fill="white" transform="translate(52.9922) rotate(38.4415)"></rect>
      </clipPath>
    </defs>
  </symbol>

  <svg width="0" height="0" class="hidden">
  <symbol xmlns="http://www.w3.org/2000/svg" viewBox="0 0 45 43" id="add-button">
    <ellipse cx="22.5" cy="21.5" rx="22.5" ry="21.5" ></ellipse>
    <path d="M22.5 13V22M22.5 31V22M22.5 22H32.5H13" stroke="white" stroke-width="3"></path>
  </symbol>


  <symbol xmlns="http://www.w3.org/2000/svg" viewBox="0 0 35 35" id="bin">
    <path d="M6.5625 13.1244V30.6244C6.5625 31.8362 7.53812 32.8119 8.75 32.8119H26.25C27.4619 32.8119 28.4375 31.8362 28.4375 30.6244V13.1244H6.5625Z" ></path>
    <path d="M10.9375 2.18689V6.56188H4.375V10.9369H30.625V6.56188H24.0625V2.18689H10.9375ZM13.125 4.37439H21.875V6.56188H13.125V4.37439Z" ></path>
  </symbol>


  <symbol xmlns="http://www.w3.org/2000/svg" viewBox="0 0 35 35" id="edit">
    <path d="M2.1875 24.0625V32.8125H10.9375L32.8125 10.9375L24.0625 2.1875L2.1875 24.0625ZM6.5625 24.0625L24.0625 6.5625L28.4375 10.9375L10.9375 28.4375L6.5625 24.0625Z" ></path>
  </symbol>


  <symbol xmlns="http://www.w3.org/2000/svg" viewBox="0 0 24 24" id="check-mark">
    <defs></defs>
    <path id="accept" d="M1008,120a12,12,0,1,1,12-12A12,12,0,0,1,1008,120Zm0-22a10,10,0,1,0,10,10A10,10,0,0,0,1008,98Zm-0.08,14.333a0.819,0.819,0,0,1-.22.391,0.892,0.892,0,0,1-.72.259,0.913,0.913,0,0,1-.94-0.655l-2.82-2.818a0.9,0.9,0,0,1,1.27-1.271l2.18,2.184,4.46-7.907a1,1,0,0,1,1.38-.385,1.051,1.051,0,0,1,.36,1.417Z" transform="translate(-996 -96)"></path>
  </symbol>

  <symbol xmlns="http://www.w3.org/2000/svg" viewBox="0 0 24 24" id="cancel">
    <defs></defs>
    <path id="cancel" d="M936,120a12,12,0,1,1,12-12A12,12,0,0,1,936,120Zm0-22a10,10,0,1,0,10,10A10,10,0,0,0,936,98Zm4.706,14.706a0.951,0.951,0,0,1-1.345,0l-3.376-3.376-3.376,3.376a0.949,0.949,0,1,1-1.341-1.342l3.376-3.376-3.376-3.376a0.949,0.949,0,1,1,1.341-1.342l3.376,3.376,3.376-3.376a0.949,0.949,0,1,1,1.342,1.342l-3.376,3.376,3.376,3.376A0.95,0.95,0,0,1,940.706,112.706Z" transform="translate(-924 -96)"></path>
  </symbol>

  <symbol xmlns="http://www.w3.org/2000/svg" viewBox="0 0 79 79" id="arrow-up">
    <circle cx="39.5" cy="39.5" r="39.5"></circle>
    <path d="M41.0607 23.9393C40.4749 23.3536 39.5251 23.3536 38.9393 23.9393L29.3934 33.4853C28.8076 34.0711 28.8076 35.0208 29.3934 35.6066C29.9792 36.1924 30.9289 36.1924 31.5147 35.6066L40 27.1213L48.4853 35.6066C49.0711 36.1924 50.0208 36.1924 50.6066 35.6066C51.1924 35.0208 51.1924 34.0711 50.6066 33.4853L41.0607 23.9393ZM41.5 55L41.5 25L38.5 25L38.5 55L41.5 55Z" fill="white"></path>
  </symbol>

  <symbol xmlns="http://www.w3.org/2000/svg" viewBox="0 0 79 79" id="back-button">
    <circle cx="39.5" cy="39.5" r="39" stroke="#779F88"></circle>
    <path d="M23.9387 38.9483C23.3533 39.5344 23.3538 40.4842 23.9399 41.0697L33.4913 50.6102C34.0774 51.1957 35.0271 51.1951 35.6126 50.609C36.198 50.0229 36.1975 49.0731 35.6114 48.4877L27.1213 40.0072L35.6018 31.5171C36.1873 30.931 36.1867 29.9813 35.6006 29.3958C35.0145 28.8103 34.0648 28.8109 33.4793 29.397L23.9387 38.9483ZM54.9992 38.4915L24.9992 38.5084L25.0009 41.5084L55.0008 41.4915L54.9992 38.4915Z" fill="#779F88"></path>
  </symbol>

  <symbol xmlns="http://www.w3.org/2000/svg" viewBox="0 0 79 79" id="forward-button">
    <circle cx="39.5" cy="39.5" r="39" stroke="#779F88"></circle>
    <path d="M56.0603 41.066C56.6463 40.4804 56.6466 39.5307 56.061 38.9447L46.5183 29.3955C45.9327 28.8095 44.983 28.8092 44.397 29.3948C43.811 29.9804 43.8107 30.9301 44.3963 31.5161L52.8787 40.0043L44.3905 48.4867C43.8046 49.0723 43.8042 50.022 44.3898 50.608C44.9754 51.194 45.9252 51.1943 46.5111 50.6087L56.0603 41.066ZM24.9995 41.4949L54.9995 41.505L55.0005 38.505L25.0005 38.4949L24.9995 41.4949Z" fill="#779F88"></path>
  </symbol>

  <symbol  xmlns="http://www.w3.org/2000/svg" viewBox="0 0 70 71" id="back-arrow">
    <ellipse cx="35" cy="35.4451" rx="35" ry="35.4451" ></ellipse>
    <path d="M18.072 32.4176L16.536 33.9562L15 32.4176L16.536 30.8791L18.072 32.4176ZM55 49.8242C55 51.0259 54.0275 52 52.8278 52C51.628 52 50.6555 51.0259 50.6555 49.8242H55ZM27.3972 44.8352L16.536 33.9562L19.608 30.8791L30.4692 41.7582L27.3972 44.8352ZM16.536 30.8791L27.3972 20L30.4692 23.0771L19.608 33.9562L16.536 30.8791ZM18.072 30.2418H39.7944V34.5935H18.072V30.2418ZM55 45.4725V49.8242H50.6555V45.4725H55ZM39.7944 30.2418C48.1922 30.2418 55 37.0608 55 45.4725H50.6555C50.6555 39.4642 45.7928 34.5935 39.7944 34.5935V30.2418Z" fill="white"></path>
  </symbol>

  <symbol  xmlns="http://www.w3.org/2000/svg" viewBox="0 0 70 70" id="shuffle">
    <path d="M35 0C15.6706 0 0 15.6696 0 35C0 54.3305 15.6706 70 35 70C54.3294 70 70 54.3305 70 35C70 15.6696 54.3294 0 35 0ZM17.2635 22.9753H18.2465C20.7118 22.972 22.8949 23.4093 24.8002 24.1851C26.7057 24.9588 28.318 26.0612 29.6896 27.3145C30.5684 28.1163 31.3497 28.9823 32.0703 29.8699C31.2715 30.9202 30.5512 31.989 29.8784 33.009C29.7005 33.2814 29.5117 33.5624 29.3185 33.8512C28.9669 33.3748 28.6111 32.9124 28.2443 32.4752C27.2873 31.3316 26.2674 30.3409 25.1193 29.5606C24.3555 29.043 23.5353 28.6113 22.6107 28.2836C21.378 27.8473 19.9631 27.587 18.2466 27.5848H17.2636L17.2635 22.9753ZM52.4826 45.3657L46.2891 49.9674C46.0938 50.1129 45.8289 50.1313 45.6163 50.012C45.4014 49.8915 45.2778 49.6582 45.2994 49.4152L45.5144 46.9174C43.8737 46.7459 42.3698 46.3694 41.0114 45.8149C39.1039 45.0413 37.4914 43.9377 36.1221 42.6855C35.2453 41.8815 34.4617 41.0178 33.7414 40.1291C34.5378 39.0798 35.2605 38.0111 35.9353 36.9901C36.1111 36.7187 36.2999 36.4355 36.4909 36.1469C36.8447 36.6253 37.2006 37.0866 37.5695 37.5249C38.5243 38.6698 39.5444 39.6581 40.688 40.4373C41.4541 40.9571 42.2764 41.3889 43.1989 41.7166C43.8912 41.9584 44.642 42.1463 45.4688 42.2656L45.2996 40.318C45.278 40.0716 45.4016 39.8394 45.6165 39.7201C45.8292 39.6007 46.0939 39.617 46.2893 39.7645L52.4828 44.3663C52.6412 44.4836 52.7346 44.6692 52.7346 44.8655C52.7345 45.062 52.6411 45.2486 52.4826 45.3657ZM52.4826 25.6338L46.2891 30.2356C46.0938 30.381 45.8289 30.4005 45.6163 30.2801C45.4014 30.1607 45.2778 29.9275 45.2994 29.6833L45.4687 27.7301C44.4574 27.8776 43.5612 28.1261 42.7451 28.456C41.4127 28.9985 40.2799 29.7635 39.2317 30.7184C38.5351 31.3554 37.8797 32.077 37.2504 32.8604C36.4105 33.9073 35.6185 35.0662 34.8307 36.2652C33.9128 37.6627 32.9297 39.107 31.7816 40.4817C30.6316 41.8566 29.3121 43.1653 27.7126 44.2513C26.6514 44.974 25.4644 45.5947 24.1557 46.0601C22.4066 46.6841 20.4362 47.0281 18.2465 47.0259H17.2635V42.4155H18.2465C20.1801 42.4133 21.7297 42.0845 23.0642 41.5429C24.3988 41.0005 25.5339 40.2365 26.5798 39.2807C27.2785 38.6437 27.9318 37.9232 28.5611 37.1377C29.3988 36.0939 30.1887 34.9349 30.9787 33.7328C31.8966 32.3363 32.8796 30.8932 34.03 29.5183C35.178 28.1445 36.5017 26.8349 38.0968 25.7488C39.1602 25.0272 40.343 24.4065 41.6581 23.9378C42.8408 23.5169 44.1299 23.2282 45.5144 23.0817L45.2994 20.5849C45.2778 20.342 45.4014 20.1075 45.6163 19.9881C45.8291 19.8688 46.0938 19.8851 46.2891 20.0326L52.4826 24.6343C52.6411 24.7527 52.7345 24.9382 52.7345 25.1345C52.7345 25.331 52.6411 25.5165 52.4826 25.6338Z"></path>
  </symbol>

  <symbol version="1.1" xmlns="http://www.w3.org/2000/svg" xmlns:xlink="http://www.w3.org/1999/xlink" viewBox="0 0 512 512" id="close">
    <title>cancel</title>
    <g id="Page-1" stroke="none" stroke-width="1" fill-rule="evenodd">
      <g id="work-case" transform="translate(91.520000, 91.520000)">
        <polygon id="Close" points="328.96 30.2933333 298.666667 1.42108547e-14 164.48 134.4 30.2933333 1.42108547e-14 1.42108547e-14 30.2933333 134.4 164.48 1.42108547e-14 298.666667 30.2933333 328.96 164.48 194.56 298.666667 328.96 328.96 298.666667 194.56 164.48"></polygon>
      </g>
    </g>
  </symbol>

  <symbol xmlns="http://www.w3.org/2000/svg" viewBox="0 0 1024 1024" id="success">
    <path fill="#25AE88" d="M512 64a448 448 0 1 1 0 896 448 448 0 0 1 0-896zm-55.808 536.384-99.52-99.584a38.4 38.4 0 1 0-54.336 54.336l126.72 126.72a38.272 38.272 0 0 0 54.336 0l262.4-262.464a38.4 38.4 0 1 0-54.272-54.336L456.192 600.384z"></path>
  </symbol>

  <symbol xmlns="http://www.w3.org/2000/svg" viewBox="0 0 1024 1024" id="error">
    <path fill="#D75A4A" d="M512 64a448 448 0 1 1 0 896 448 448 0 0 1 0-896zm0 393.664L407.936 353.6a38.4 38.4 0 1 0-54.336 54.336L457.664 512 353.6 616.064a38.4 38.4 0 1 0 54.336 54.336L512 566.336 616.064 670.4a38.4 38.4 0 1 0 54.336-54.336L566.336 512 670.4 407.936a38.4 38.4 0 1 0-54.336-54.336L512 457.664z"></path>
  </symbol>

</svg>